<svg width="80" height="66" viewBox="0 0 80 66" fill="none" xmlns="http://www.w3.org/2000/svg">
<g clip-path="url(#clip0_11_154)">
<mask id="path-1-inside-1_11_154" fill="white">
<path d="M70.039 16.7136C71.4927 15.0151 72.3805 12.8215 72.3805 10.4145C72.3805 5.04713 67.9902 0.679486 62.5951 0.679486C57.2 0.679486 52.8098 5.04713 52.8098 10.4145C52.8098 12.8215 53.6976 15.0151 55.1512 16.7136C53.6098 17.4901 52.2049 18.4995 50.9854 19.7127C50.0195 18.9654 48.9854 18.3151 47.8829 17.7812C49.5317 15.9274 50.5366 13.5107 50.5366 10.8513C50.5366 5.07625 45.8146 0.368896 40 0.368896C34.1854 0.368896 29.4634 5.06655 29.4634 10.8513C29.4634 13.5107 30.4683 15.9274 32.1171 17.7812C31.0244 18.3151 29.9805 18.9654 29.0146 19.7127C27.7854 18.4995 26.3805 17.4901 24.8488 16.7136C26.3024 15.0151 27.1902 12.8118 27.1902 10.4145C27.1902 5.04713 22.8 0.679486 17.4049 0.679486C12.0098 0.679486 7.61951 5.04713 7.61951 10.4145C7.61951 12.8118 8.50731 15.0151 9.96097 16.7136C5.05366 19.1886 1.61951 24.0027 0.99512 29.5254C0.799998 31.2627 2.00975 32.8254 3.73658 33.0874C8.30244 33.8057 12.8976 34.1551 17.4732 34.1551C19.2585 34.1551 21.0341 34.0871 22.8098 33.9804C23.3268 34.7568 24.1561 35.3101 25.1024 35.4557C30.0488 36.2321 35.0341 36.6204 40.0098 36.6204C44.9854 36.6204 49.961 36.2321 54.8976 35.4557C55.8537 35.3101 56.6829 34.7568 57.2 33.9804C58.9756 34.0871 60.7512 34.1551 62.5366 34.1551C67.1122 34.1551 71.7073 33.796 76.2732 33.0874C78 32.8254 79.2 31.253 79.0049 29.5254C78.3805 23.993 74.9463 19.1789 70.039 16.7136ZM62.5951 3.60096C66.3707 3.60096 69.4537 6.65831 69.4537 10.4242C69.4537 14.1901 66.3805 17.2474 62.5951 17.2474C58.8098 17.2474 55.7366 14.1901 55.7366 10.4242C55.7366 6.65831 58.8098 3.60096 62.5951 3.60096ZM40 3.29037C44.1951 3.29037 47.6098 6.68743 47.6098 10.861C47.6098 15.0345 44.1951 18.4315 40 18.4315C35.8049 18.4315 32.3902 15.0345 32.3902 10.861C32.3902 6.68743 35.8049 3.29037 40 3.29037ZM17.4049 3.60096C21.1805 3.60096 24.2634 6.65831 24.2634 10.4242C24.2634 14.1901 21.1902 17.2474 17.4049 17.2474C13.6195 17.2474 10.5463 14.1901 10.5463 10.4242C10.5463 6.65831 13.6195 3.60096 17.4049 3.60096ZM22.3317 31.2C16.3317 31.5494 10.2341 31.1657 4.18536 30.2242C4.00975 30.1951 3.88292 30.0398 3.90244 29.8651C4.46829 24.886 7.79512 20.6251 12.4585 18.8101C13.9122 19.6642 15.6 20.1592 17.4049 20.1592C19.2098 20.1592 20.8976 19.6642 22.3512 18.8101C24.0293 19.4701 25.561 20.4504 26.8488 21.7024C24.4293 24.3133 22.8585 27.5842 22.3317 31.1171V31.2ZM54.8488 32.2042C54.8195 32.3595 54.6927 32.5536 54.4488 32.5924C44.8683 34.0968 35.1512 34.0968 25.5512 32.5924C25.3073 32.5536 25.1902 32.3595 25.1512 32.2042C25.1415 32.146 25.1415 32.0877 25.1415 32.0489C25.5512 28.5062 27.2293 25.216 29.8829 22.7895C31.2585 21.5277 32.8976 20.5377 34.6439 19.8777C36.2146 20.8095 38.0488 21.353 40 21.353C41.9512 21.353 43.7854 20.8095 45.3561 19.8777C47.1024 20.5377 48.7415 21.5277 50.1171 22.7895C52.7707 25.216 54.4488 28.5062 54.8488 32.0198C54.8488 32.078 54.8488 32.146 54.8488 32.2042ZM75.8244 30.2242C69.7854 31.1657 63.678 31.4568 57.6683 31.1074C57.1415 27.5939 55.5707 24.3133 53.1512 21.6927C54.439 20.4407 55.9707 19.4604 57.6488 18.8004C59.1024 19.6545 60.7902 20.1495 62.5951 20.1495C64.4 20.1495 66.0878 19.6545 67.5415 18.8004C72.2049 20.6154 75.5317 24.8762 76.0976 29.8554C76.1171 30.0301 75.8318 30.2211 75.6562 30.2502L75.8244 30.2242Z"/>
<path d="M40 51.7228C46.7805 51.7228 52.3024 46.2293 52.3024 39.4837C52.3024 38.6781 51.6488 38.0278 50.839 38.0278C50.0293 38.0278 49.3756 38.6781 49.3756 39.4837C49.3756 44.6278 45.1707 48.811 40 48.811C34.8293 48.811 30.6244 44.6278 30.6244 39.4837C30.6244 38.6781 29.9707 38.0278 29.161 38.0278C28.3512 38.0278 27.6976 38.6781 27.6976 39.4837C27.6976 46.239 33.2195 51.7228 40 51.7228Z"/>
<path d="M20.7707 37.5813C20.361 36.8922 19.4537 36.669 18.761 37.0766L13.3171 40.3087C12.7707 40.629 12.4976 41.2696 12.6439 41.881L14.3024 49.1216C14.439 49.7331 14.9658 50.1893 15.6 50.2475L21.161 50.7425C22.1561 52.3925 23.3756 53.9066 24.7707 55.246L24.0195 60.7493C23.9317 61.3704 24.2634 61.9819 24.839 62.2537L31.561 65.476C32.1366 65.7478 32.8195 65.6313 33.2488 65.1752L37.1024 61.1569C39.0341 61.4093 40.9561 61.4093 42.8878 61.1569L46.7415 65.1752C47.0244 65.4663 47.4049 65.6216 47.7951 65.6216C48.0097 65.6216 48.2244 65.5731 48.4293 65.476L55.1512 62.2537C55.7268 61.9819 56.0488 61.3704 55.9707 60.7493L55.2195 55.246C56.6244 53.9066 57.8341 52.4022 58.8293 50.7425L64.3902 50.2475C65.0244 50.1893 65.5415 49.7331 65.6878 49.1216L67.3463 41.881C67.4829 41.2696 67.2097 40.629 66.6732 40.3087L61.2293 37.0766C60.5366 36.669 59.639 36.8922 59.2195 37.5813C58.8097 38.2704 59.0341 39.1634 59.7268 39.5807L64.2537 42.2693L63.0634 47.4425L57.8049 47.9084C57.3171 47.9472 56.8878 48.2287 56.6536 48.6557C55.6195 50.5193 54.2829 52.1887 52.6829 53.6057C52.3219 53.926 52.1463 54.4113 52.2049 54.8869L52.9171 60.0893L48.1073 62.3896L44.4585 58.5946C44.1268 58.2452 43.639 58.0899 43.161 58.1675C41.0341 58.5266 38.9171 58.5266 36.7902 58.1675C36.3122 58.0899 35.8244 58.2452 35.4927 58.5946L31.8439 62.3896L27.0341 60.0893L27.7463 54.8869C27.8146 54.4113 27.6293 53.926 27.2683 53.6057C25.6683 52.1887 24.3317 50.5193 23.2976 48.6557C23.0634 48.2384 22.6341 47.9569 22.1463 47.9084L16.8878 47.4425L15.6976 42.2693L20.2244 39.5807C20.9171 39.1731 21.1415 38.2704 20.7317 37.5813H20.7707Z"/>
</mask>
<path d="M70.039 16.7136C71.4927 15.0151 72.3805 12.8215 72.3805 10.4145C72.3805 5.04713 67.9902 0.679486 62.5951 0.679486C57.2 0.679486 52.8098 5.04713 52.8098 10.4145C52.8098 12.8215 53.6976 15.0151 55.1512 16.7136C53.6098 17.4901 52.2049 18.4995 50.9854 19.7127C50.0195 18.9654 48.9854 18.3151 47.8829 17.7812C49.5317 15.9274 50.5366 13.5107 50.5366 10.8513C50.5366 5.07625 45.8146 0.368896 40 0.368896C34.1854 0.368896 29.4634 5.06655 29.4634 10.8513C29.4634 13.5107 30.4683 15.9274 32.1171 17.7812C31.0244 18.3151 29.9805 18.9654 29.0146 19.7127C27.7854 18.4995 26.3805 17.4901 24.8488 16.7136C26.3024 15.0151 27.1902 12.8118 27.1902 10.4145C27.1902 5.04713 22.8 0.679486 17.4049 0.679486C12.0098 0.679486 7.61951 5.04713 7.61951 10.4145C7.61951 12.8118 8.50731 15.0151 9.96097 16.7136C5.05366 19.1886 1.61951 24.0027 0.99512 29.5254C0.799998 31.2627 2.00975 32.8254 3.73658 33.0874C8.30244 33.8057 12.8976 34.1551 17.4732 34.1551C19.2585 34.1551 21.0341 34.0871 22.8098 33.9804C23.3268 34.7568 24.1561 35.3101 25.1024 35.4557C30.0488 36.2321 35.0341 36.6204 40.0098 36.6204C44.9854 36.6204 49.961 36.2321 54.8976 35.4557C55.8537 35.3101 56.6829 34.7568 57.2 33.9804C58.9756 34.0871 60.7512 34.1551 62.5366 34.1551C67.1122 34.1551 71.7073 33.796 76.2732 33.0874C78 32.8254 79.2 31.253 79.0049 29.5254C78.3805 23.993 74.9463 19.1789 70.039 16.7136ZM62.5951 3.60096C66.3707 3.60096 69.4537 6.65831 69.4537 10.4242C69.4537 14.1901 66.3805 17.2474 62.5951 17.2474C58.8098 17.2474 55.7366 14.1901 55.7366 10.4242C55.7366 6.65831 58.8098 3.60096 62.5951 3.60096ZM40 3.29037C44.1951 3.29037 47.6098 6.68743 47.6098 10.861C47.6098 15.0345 44.1951 18.4315 40 18.4315C35.8049 18.4315 32.3902 15.0345 32.3902 10.861C32.3902 6.68743 35.8049 3.29037 40 3.29037ZM17.4049 3.60096C21.1805 3.60096 24.2634 6.65831 24.2634 10.4242C24.2634 14.1901 21.1902 17.2474 17.4049 17.2474C13.6195 17.2474 10.5463 14.1901 10.5463 10.4242C10.5463 6.65831 13.6195 3.60096 17.4049 3.60096ZM22.3317 31.2C16.3317 31.5494 10.2341 31.1657 4.18536 30.2242C4.00975 30.1951 3.88292 30.0398 3.90244 29.8651C4.46829 24.886 7.79512 20.6251 12.4585 18.8101C13.9122 19.6642 15.6 20.1592 17.4049 20.1592C19.2098 20.1592 20.8976 19.6642 22.3512 18.8101C24.0293 19.4701 25.561 20.4504 26.8488 21.7024C24.4293 24.3133 22.8585 27.5842 22.3317 31.1171V31.2ZM54.8488 32.2042C54.8195 32.3595 54.6927 32.5536 54.4488 32.5924C44.8683 34.0968 35.1512 34.0968 25.5512 32.5924C25.3073 32.5536 25.1902 32.3595 25.1512 32.2042C25.1415 32.146 25.1415 32.0877 25.1415 32.0489C25.5512 28.5062 27.2293 25.216 29.8829 22.7895C31.2585 21.5277 32.8976 20.5377 34.6439 19.8777C36.2146 20.8095 38.0488 21.353 40 21.353C41.9512 21.353 43.7854 20.8095 45.3561 19.8777C47.1024 20.5377 48.7415 21.5277 50.1171 22.7895C52.7707 25.216 54.4488 28.5062 54.8488 32.0198C54.8488 32.078 54.8488 32.146 54.8488 32.2042ZM75.8244 30.2242C69.7854 31.1657 63.678 31.4568 57.6683 31.1074C57.1415 27.5939 55.5707 24.3133 53.1512 21.6927C54.439 20.4407 55.9707 19.4604 57.6488 18.8004C59.1024 19.6545 60.7902 20.1495 62.5951 20.1495C64.4 20.1495 66.0878 19.6545 67.5415 18.8004C72.2049 20.6154 75.5317 24.8762 76.0976 29.8554C76.1171 30.0301 75.8318 30.2211 75.6562 30.2502L75.8244 30.2242Z" fill="#17100E"/>
<path d="M40 51.7228C46.7805 51.7228 52.3024 46.2293 52.3024 39.4837C52.3024 38.6781 51.6488 38.0278 50.839 38.0278C50.0293 38.0278 49.3756 38.6781 49.3756 39.4837C49.3756 44.6278 45.1707 48.811 40 48.811C34.8293 48.811 30.6244 44.6278 30.6244 39.4837C30.6244 38.6781 29.9707 38.0278 29.161 38.0278C28.3512 38.0278 27.6976 38.6781 27.6976 39.4837C27.6976 46.239 33.2195 51.7228 40 51.7228Z" fill="#B48627"/>
<path d="M20.7707 37.5813C20.361 36.8922 19.4537 36.669 18.761 37.0766L13.3171 40.3087C12.7707 40.629 12.4976 41.2696 12.6439 41.881L14.3024 49.1216C14.439 49.7331 14.9658 50.1893 15.6 50.2475L21.161 50.7425C22.1561 52.3925 23.3756 53.9066 24.7707 55.246L24.0195 60.7493C23.9317 61.3704 24.2634 61.9819 24.839 62.2537L31.561 65.476C32.1366 65.7478 32.8195 65.6313 33.2488 65.1752L37.1024 61.1569C39.0341 61.4093 40.9561 61.4093 42.8878 61.1569L46.7415 65.1752C47.0244 65.4663 47.4049 65.6216 47.7951 65.6216C48.0097 65.6216 48.2244 65.5731 48.4293 65.476L55.1512 62.2537C55.7268 61.9819 56.0488 61.3704 55.9707 60.7493L55.2195 55.246C56.6244 53.9066 57.8341 52.4022 58.8293 50.7425L64.3902 50.2475C65.0244 50.1893 65.5415 49.7331 65.6878 49.1216L67.3463 41.881C67.4829 41.2696 67.2097 40.629 66.6732 40.3087L61.2293 37.0766C60.5366 36.669 59.639 36.8922 59.2195 37.5813C58.8097 38.2704 59.0341 39.1634 59.7268 39.5807L64.2537 42.2693L63.0634 47.4425L57.8049 47.9084C57.3171 47.9472 56.8878 48.2287 56.6536 48.6557C55.6195 50.5193 54.2829 52.1887 52.6829 53.6057C52.3219 53.926 52.1463 54.4113 52.2049 54.8869L52.9171 60.0893L48.1073 62.3896L44.4585 58.5946C44.1268 58.2452 43.639 58.0899 43.161 58.1675C41.0341 58.5266 38.9171 58.5266 36.7902 58.1675C36.3122 58.0899 35.8244 58.2452 35.4927 58.5946L31.8439 62.3896L27.0341 60.0893L27.7463 54.8869C27.8146 54.4113 27.6293 53.926 27.2683 53.6057C25.6683 52.1887 24.3317 50.5193 23.2976 48.6557C23.0634 48.2384 22.6341 47.9569 22.1463 47.9084L16.8878 47.4425L15.6976 42.2693L20.2244 39.5807C20.9171 39.1731 21.1415 38.2704 20.7317 37.5813H20.7707Z" fill="#B48627"/>
<path d="M70.039 16.7136C71.4927 15.0151 72.3805 12.8215 72.3805 10.4145C72.3805 5.04713 67.9902 0.679486 62.5951 0.679486C57.2 0.679486 52.8098 5.04713 52.8098 10.4145C52.8098 12.8215 53.6976 15.0151 55.1512 16.7136C53.6098 17.4901 52.2049 18.4995 50.9854 19.7127C50.0195 18.9654 48.9854 18.3151 47.8829 17.7812C49.5317 15.9274 50.5366 13.5107 50.5366 10.8513C50.5366 5.07625 45.8146 0.368896 40 0.368896C34.1854 0.368896 29.4634 5.06655 29.4634 10.8513C29.4634 13.5107 30.4683 15.9274 32.1171 17.7812C31.0244 18.3151 29.9805 18.9654 29.0146 19.7127C27.7854 18.4995 26.3805 17.4901 24.8488 16.7136C26.3024 15.0151 27.1902 12.8118 27.1902 10.4145C27.1902 5.04713 22.8 0.679486 17.4049 0.679486C12.0098 0.679486 7.61951 5.04713 7.61951 10.4145C7.61951 12.8118 8.50731 15.0151 9.96097 16.7136C5.05366 19.1886 1.61951 24.0027 0.99512 29.5254C0.799998 31.2627 2.00975 32.8254 3.73658 33.0874C8.30244 33.8057 12.8976 34.1551 17.4732 34.1551C19.2585 34.1551 21.0341 34.0871 22.8098 33.9804C23.3268 34.7568 24.1561 35.3101 25.1024 35.4557C30.0488 36.2321 35.0341 36.6204 40.0098 36.6204C44.9854 36.6204 49.961 36.2321 54.8976 35.4557C55.8537 35.3101 56.6829 34.7568 57.2 33.9804C58.9756 34.0871 60.7512 34.1551 62.5366 34.1551C67.1122 34.1551 71.7073 33.796 76.2732 33.0874C78 32.8254 79.2 31.253 79.0049 29.5254C78.3805 23.993 74.9463 19.1789 70.039 16.7136ZM62.5951 3.60096C66.3707 3.60096 69.4537 6.65831 69.4537 10.4242C69.4537 14.1901 66.3805 17.2474 62.5951 17.2474C58.8098 17.2474 55.7366 14.1901 55.7366 10.4242C55.7366 6.65831 58.8098 3.60096 62.5951 3.60096ZM40 3.29037C44.1951 3.29037 47.6098 6.68743 47.6098 10.861C47.6098 15.0345 44.1951 18.4315 40 18.4315C35.8049 18.4315 32.3902 15.0345 32.3902 10.861C32.3902 6.68743 35.8049 3.29037 40 3.29037ZM17.4049 3.60096C21.1805 3.60096 24.2634 6.65831 24.2634 10.4242C24.2634 14.1901 21.1902 17.2474 17.4049 17.2474C13.6195 17.2474 10.5463 14.1901 10.5463 10.4242C10.5463 6.65831 13.6195 3.60096 17.4049 3.60096ZM22.3317 31.2C16.3317 31.5494 10.2341 31.1657 4.18536 30.2242C4.00975 30.1951 3.88292 30.0398 3.90244 29.8651C4.46829 24.886 7.79512 20.6251 12.4585 18.8101C13.9122 19.6642 15.6 20.1592 17.4049 20.1592C19.2098 20.1592 20.8976 19.6642 22.3512 18.8101C24.0293 19.4701 25.561 20.4504 26.8488 21.7024C24.4293 24.3133 22.8585 27.5842 22.3317 31.1171V31.2ZM54.8488 32.2042C54.8195 32.3595 54.6927 32.5536 54.4488 32.5924C44.8683 34.0968 35.1512 34.0968 25.5512 32.5924C25.3073 32.5536 25.1902 32.3595 25.1512 32.2042C25.1415 32.146 25.1415 32.0877 25.1415 32.0489C25.5512 28.5062 27.2293 25.216 29.8829 22.7895C31.2585 21.5277 32.8976 20.5377 34.6439 19.8777C36.2146 20.8095 38.0488 21.353 40 21.353C41.9512 21.353 43.7854 20.8095 45.3561 19.8777C47.1024 20.5377 48.7415 21.5277 50.1171 22.7895C52.7707 25.216 54.4488 28.5062 54.8488 32.0198C54.8488 32.078 54.8488 32.146 54.8488 32.2042ZM75.8244 30.2242C69.7854 31.1657 63.678 31.4568 57.6683 31.1074C57.1415 27.5939 55.5707 24.3133 53.1512 21.6927C54.439 20.4407 55.9707 19.4604 57.6488 18.8004C59.1024 19.6545 60.7902 20.1495 62.5951 20.1495C64.4 20.1495 66.0878 19.6545 67.5415 18.8004C72.2049 20.6154 75.5317 24.8762 76.0976 29.8554C76.1171 30.0301 75.8318 30.2211 75.6562 30.2502L75.8244 30.2242Z" stroke="white" stroke-width="0.8" mask="url(#path-1-inside-1_11_154)"/>
<path d="M40 51.7228C46.7805 51.7228 52.3024 46.2293 52.3024 39.4837C52.3024 38.6781 51.6488 38.0278 50.839 38.0278C50.0293 38.0278 49.3756 38.6781 49.3756 39.4837C49.3756 44.6278 45.1707 48.811 40 48.811C34.8293 48.811 30.6244 44.6278 30.6244 39.4837C30.6244 38.6781 29.9707 38.0278 29.161 38.0278C28.3512 38.0278 27.6976 38.6781 27.6976 39.4837C27.6976 46.239 33.2195 51.7228 40 51.7228Z" stroke="white" stroke-width="0.8" mask="url(#path-1-inside-1_11_154)"/>
<path d="M20.7707 37.5813C20.361 36.8922 19.4537 36.669 18.761 37.0766L13.3171 40.3087C12.7707 40.629 12.4976 41.2696 12.6439 41.881L14.3024 49.1216C14.439 49.7331 14.9658 50.1893 15.6 50.2475L21.161 50.7425C22.1561 52.3925 23.3756 53.9066 24.7707 55.246L24.0195 60.7493C23.9317 61.3704 24.2634 61.9819 24.839 62.2537L31.561 65.476C32.1366 65.7478 32.8195 65.6313 33.2488 65.1752L37.1024 61.1569C39.0341 61.4093 40.9561 61.4093 42.8878 61.1569L46.7415 65.1752C47.0244 65.4663 47.4049 65.6216 47.7951 65.6216C48.0097 65.6216 48.2244 65.5731 48.4293 65.476L55.1512 62.2537C55.7268 61.9819 56.0488 61.3704 55.9707 60.7493L55.2195 55.246C56.6244 53.9066 57.8341 52.4022 58.8293 50.7425L64.3902 50.2475C65.0244 50.1893 65.5415 49.7331 65.6878 49.1216L67.3463 41.881C67.4829 41.2696 67.2097 40.629 66.6732 40.3087L61.2293 37.0766C60.5366 36.669 59.639 36.8922 59.2195 37.5813C58.8097 38.2704 59.0341 39.1634 59.7268 39.5807L64.2537 42.2693L63.0634 47.4425L57.8049 47.9084C57.3171 47.9472 56.8878 48.2287 56.6536 48.6557C55.6195 50.5193 54.2829 52.1887 52.6829 53.6057C52.3219 53.926 52.1463 54.4113 52.2049 54.8869L52.9171 60.0893L48.1073 62.3896L44.4585 58.5946C44.1268 58.2452 43.639 58.0899 43.161 58.1675C41.0341 58.5266 38.9171 58.5266 36.7902 58.1675C36.3122 58.0899 35.8244 58.2452 35.4927 58.5946L31.8439 62.3896L27.0341 60.0893L27.7463 54.8869C27.8146 54.4113 27.6293 53.926 27.2683 53.6057C25.6683 52.1887 24.3317 50.5193 23.2976 48.6557C23.0634 48.2384 22.6341 47.9569 22.1463 47.9084L16.8878 47.4425L15.6976 42.2693L20.2244 39.5807C20.9171 39.1731 21.1415 38.2704 20.7317 37.5813H20.7707Z" stroke="white" stroke-width="0.8" mask="url(#path-1-inside-1_11_154)"/>
</g>
<defs>
<clipPath id="clip0_11_154">
<rect width="80" height="66" fill="white"/>
</clipPath>
</defs>
</svg>
