<svg width="64" height="66" viewBox="0 0 64 66" fill="none" xmlns="http://www.w3.org/2000/svg">
<g clip-path="url(#clip0_12_112)">
<mask id="path-1-inside-1_12_112" fill="white">
<path d="M56.7533 21.2628V2.06262C56.7533 1.11197 55.9872 0.344971 55.0449 0.344971H35.9459C34.5772 0.344971 33.2888 0.879933 32.3208 1.85637L0.84351 33.5025C0.686455 33.6605 0.561459 33.8506 0.474919 34.0601C0.38838 34.2695 0.343506 34.4919 0.343506 34.7175V39.8737C0.343506 40.8244 1.10953 41.5914 2.05181 41.5914H5.47171V45.03C5.47171 45.9806 6.23773 46.7476 7.18002 46.7476H10.5999V50.1862C10.5999 51.1369 11.3659 51.9039 12.3082 51.9039H15.7281V55.3425C15.7281 56.2931 16.4941 57.0601 17.4364 57.0601H22.5646C23.0166 57.0601 23.4524 56.8797 23.773 56.5574L55.2503 24.9079C56.2183 23.9379 56.7533 22.6389 56.7533 21.2628ZM52.8334 22.4778L21.8558 53.6249H19.1442V50.1863C19.1442 49.2356 18.3782 48.4686 17.4359 48.4686H14.016V45.03C14.016 44.0794 13.25 43.3124 12.3077 43.3124H8.88782V39.8738C8.88782 38.9231 8.12179 38.1561 7.17951 38.1561H3.75961V35.4297L34.7372 4.2827C35.0578 3.96365 35.4969 3.77996 35.9456 3.77996L53.3331 3.78318V21.2658C53.3331 21.7202 53.1539 22.1555 52.8334 22.4778ZM39.0964 18.6238C39.7631 19.2941 39.7631 20.3834 39.0964 21.0537L36.6765 23.4836C38.6765 25.4945 38.6765 28.7655 36.6765 30.7764C36.0099 31.4467 34.9265 31.4467 34.2599 30.7764C33.5932 30.1061 33.5932 29.0169 34.2599 28.3465C34.9265 27.6762 34.9265 26.587 34.2599 25.9167L31.8432 23.4868C31.1733 22.8165 30.0932 22.8165 29.4266 23.4868L28.2182 24.7018C27.5515 25.3721 27.5515 26.4613 28.2182 27.1316L30.6349 29.5615C31.6028 30.5348 32.138 31.8303 32.138 33.2064C32.138 34.5857 31.606 35.878 30.6349 36.8512L29.4265 38.0662C28.4264 39.0717 27.1124 39.5744 25.8015 39.5744C24.4873 39.5744 23.1765 39.0716 22.1732 38.0662L19.7566 40.4993C19.4232 40.8344 18.9841 41.002 18.5482 41.002C18.1123 41.002 17.6732 40.8345 17.3398 40.4993C16.6732 39.829 16.6732 38.7397 17.3398 38.0694L19.7565 35.6395C17.7565 33.6286 17.7565 30.3576 19.7565 28.3467C20.4232 27.6764 21.5065 27.6764 22.1731 28.3467C22.8398 29.017 22.8398 30.1063 22.1731 30.7766C21.5065 31.4469 21.5065 32.5361 22.1731 33.2065L23.3815 34.4214H23.3847V34.4247L24.5931 35.6396C25.2566 36.3099 26.3431 36.3099 27.0097 35.6396L28.2181 34.4247C28.5418 34.0992 28.7181 33.6673 28.7181 33.2097C28.7181 32.7521 28.5386 32.3202 28.2181 31.9947L25.8015 29.5648C23.8015 27.5539 23.8015 24.2829 25.8015 22.272L27.0098 21.057C29.0098 19.0461 32.263 19.0461 34.263 21.057L36.6797 18.6271C37.3495 17.9536 38.4297 17.9535 39.0964 18.6238ZM49.914 8.93668V10.6543C49.914 11.605 49.148 12.372 48.2057 12.372H46.4974C45.5519 12.372 44.7891 11.6018 44.7891 10.6543V8.93668C44.7891 7.98604 45.5551 7.21904 46.4974 7.21904H48.2057C49.1512 7.21904 49.914 7.98925 49.914 8.93668Z"/>
<path d="M63.564 60.3865V14.2055C63.564 13.2548 62.8009 12.4883 61.8554 12.4883C60.9131 12.4883 60.1471 13.2553 60.1471 14.206L60.1407 59.6775L58.2241 61.6078L55.8042 59.1747C55.1632 58.5302 54.0286 58.5302 53.3876 59.1747L50.9709 61.6078L48.5543 59.1747C47.9133 58.5302 46.7786 58.5302 46.1376 59.1747L43.7209 61.6078L41.3043 59.1747C40.9837 58.8525 40.551 58.672 40.0959 58.672C39.644 58.672 39.2081 58.8525 38.8875 59.1747L36.4677 61.6078L34.5511 59.6775V53.6254C34.5511 52.6779 33.785 51.9077 32.8427 51.9077C31.9005 51.9077 31.1344 52.6747 31.1344 53.6254L31.1409 60.3865C31.1409 60.8409 31.3203 61.2792 31.6409 61.6015L35.2659 65.2495C35.5865 65.5718 36.0191 65.7523 36.4742 65.7523C36.9262 65.7523 37.3621 65.5718 37.6826 65.2495L40.1025 62.8164L42.5191 65.2495C43.1601 65.8941 44.2948 65.8941 44.9358 65.2495L47.3524 62.8164L49.7691 65.2495C50.4101 65.8941 51.5447 65.8941 52.1858 65.2495L54.6024 62.8164L57.0223 65.2495C57.3428 65.5718 57.7755 65.7523 58.2306 65.7523C58.6826 65.7523 59.1185 65.5718 59.439 65.2495L63.064 61.6015C63.3846 61.2791 63.564 60.8409 63.564 60.3865Z"/>
</mask>
<path d="M56.7533 21.2628V2.06262C56.7533 1.11197 55.9872 0.344971 55.0449 0.344971H35.9459C34.5772 0.344971 33.2888 0.879933 32.3208 1.85637L0.84351 33.5025C0.686455 33.6605 0.561459 33.8506 0.474919 34.0601C0.38838 34.2695 0.343506 34.4919 0.343506 34.7175V39.8737C0.343506 40.8244 1.10953 41.5914 2.05181 41.5914H5.47171V45.03C5.47171 45.9806 6.23773 46.7476 7.18002 46.7476H10.5999V50.1862C10.5999 51.1369 11.3659 51.9039 12.3082 51.9039H15.7281V55.3425C15.7281 56.2931 16.4941 57.0601 17.4364 57.0601H22.5646C23.0166 57.0601 23.4524 56.8797 23.773 56.5574L55.2503 24.9079C56.2183 23.9379 56.7533 22.6389 56.7533 21.2628ZM52.8334 22.4778L21.8558 53.6249H19.1442V50.1863C19.1442 49.2356 18.3782 48.4686 17.4359 48.4686H14.016V45.03C14.016 44.0794 13.25 43.3124 12.3077 43.3124H8.88782V39.8738C8.88782 38.9231 8.12179 38.1561 7.17951 38.1561H3.75961V35.4297L34.7372 4.2827C35.0578 3.96365 35.4969 3.77996 35.9456 3.77996L53.3331 3.78318V21.2658C53.3331 21.7202 53.1539 22.1555 52.8334 22.4778ZM39.0964 18.6238C39.7631 19.2941 39.7631 20.3834 39.0964 21.0537L36.6765 23.4836C38.6765 25.4945 38.6765 28.7655 36.6765 30.7764C36.0099 31.4467 34.9265 31.4467 34.2599 30.7764C33.5932 30.1061 33.5932 29.0169 34.2599 28.3465C34.9265 27.6762 34.9265 26.587 34.2599 25.9167L31.8432 23.4868C31.1733 22.8165 30.0932 22.8165 29.4266 23.4868L28.2182 24.7018C27.5515 25.3721 27.5515 26.4613 28.2182 27.1316L30.6349 29.5615C31.6028 30.5348 32.138 31.8303 32.138 33.2064C32.138 34.5857 31.606 35.878 30.6349 36.8512L29.4265 38.0662C28.4264 39.0717 27.1124 39.5744 25.8015 39.5744C24.4873 39.5744 23.1765 39.0716 22.1732 38.0662L19.7566 40.4993C19.4232 40.8344 18.9841 41.002 18.5482 41.002C18.1123 41.002 17.6732 40.8345 17.3398 40.4993C16.6732 39.829 16.6732 38.7397 17.3398 38.0694L19.7565 35.6395C17.7565 33.6286 17.7565 30.3576 19.7565 28.3467C20.4232 27.6764 21.5065 27.6764 22.1731 28.3467C22.8398 29.017 22.8398 30.1063 22.1731 30.7766C21.5065 31.4469 21.5065 32.5361 22.1731 33.2065L23.3815 34.4214H23.3847V34.4247L24.5931 35.6396C25.2566 36.3099 26.3431 36.3099 27.0097 35.6396L28.2181 34.4247C28.5418 34.0992 28.7181 33.6673 28.7181 33.2097C28.7181 32.7521 28.5386 32.3202 28.2181 31.9947L25.8015 29.5648C23.8015 27.5539 23.8015 24.2829 25.8015 22.272L27.0098 21.057C29.0098 19.0461 32.263 19.0461 34.263 21.057L36.6797 18.6271C37.3495 17.9536 38.4297 17.9535 39.0964 18.6238ZM49.914 8.93668V10.6543C49.914 11.605 49.148 12.372 48.2057 12.372H46.4974C45.5519 12.372 44.7891 11.6018 44.7891 10.6543V8.93668C44.7891 7.98604 45.5551 7.21904 46.4974 7.21904H48.2057C49.1512 7.21904 49.914 7.98925 49.914 8.93668Z" fill="#17100E"/>
<path d="M63.564 60.3865V14.2055C63.564 13.2548 62.8009 12.4883 61.8554 12.4883C60.9131 12.4883 60.1471 13.2553 60.1471 14.206L60.1407 59.6775L58.2241 61.6078L55.8042 59.1747C55.1632 58.5302 54.0286 58.5302 53.3876 59.1747L50.9709 61.6078L48.5543 59.1747C47.9133 58.5302 46.7786 58.5302 46.1376 59.1747L43.7209 61.6078L41.3043 59.1747C40.9837 58.8525 40.551 58.672 40.0959 58.672C39.644 58.672 39.2081 58.8525 38.8875 59.1747L36.4677 61.6078L34.5511 59.6775V53.6254C34.5511 52.6779 33.785 51.9077 32.8427 51.9077C31.9005 51.9077 31.1344 52.6747 31.1344 53.6254L31.1409 60.3865C31.1409 60.8409 31.3203 61.2792 31.6409 61.6015L35.2659 65.2495C35.5865 65.5718 36.0191 65.7523 36.4742 65.7523C36.9262 65.7523 37.3621 65.5718 37.6826 65.2495L40.1025 62.8164L42.5191 65.2495C43.1601 65.8941 44.2948 65.8941 44.9358 65.2495L47.3524 62.8164L49.7691 65.2495C50.4101 65.8941 51.5447 65.8941 52.1858 65.2495L54.6024 62.8164L57.0223 65.2495C57.3428 65.5718 57.7755 65.7523 58.2306 65.7523C58.6826 65.7523 59.1185 65.5718 59.439 65.2495L63.064 61.6015C63.3846 61.2791 63.564 60.8409 63.564 60.3865Z" fill="#17100E"/>
<path d="M56.7533 21.2628V2.06262C56.7533 1.11197 55.9872 0.344971 55.0449 0.344971H35.9459C34.5772 0.344971 33.2888 0.879933 32.3208 1.85637L0.84351 33.5025C0.686455 33.6605 0.561459 33.8506 0.474919 34.0601C0.38838 34.2695 0.343506 34.4919 0.343506 34.7175V39.8737C0.343506 40.8244 1.10953 41.5914 2.05181 41.5914H5.47171V45.03C5.47171 45.9806 6.23773 46.7476 7.18002 46.7476H10.5999V50.1862C10.5999 51.1369 11.3659 51.9039 12.3082 51.9039H15.7281V55.3425C15.7281 56.2931 16.4941 57.0601 17.4364 57.0601H22.5646C23.0166 57.0601 23.4524 56.8797 23.773 56.5574L55.2503 24.9079C56.2183 23.9379 56.7533 22.6389 56.7533 21.2628ZM52.8334 22.4778L21.8558 53.6249H19.1442V50.1863C19.1442 49.2356 18.3782 48.4686 17.4359 48.4686H14.016V45.03C14.016 44.0794 13.25 43.3124 12.3077 43.3124H8.88782V39.8738C8.88782 38.9231 8.12179 38.1561 7.17951 38.1561H3.75961V35.4297L34.7372 4.2827C35.0578 3.96365 35.4969 3.77996 35.9456 3.77996L53.3331 3.78318V21.2658C53.3331 21.7202 53.1539 22.1555 52.8334 22.4778ZM39.0964 18.6238C39.7631 19.2941 39.7631 20.3834 39.0964 21.0537L36.6765 23.4836C38.6765 25.4945 38.6765 28.7655 36.6765 30.7764C36.0099 31.4467 34.9265 31.4467 34.2599 30.7764C33.5932 30.1061 33.5932 29.0169 34.2599 28.3465C34.9265 27.6762 34.9265 26.587 34.2599 25.9167L31.8432 23.4868C31.1733 22.8165 30.0932 22.8165 29.4266 23.4868L28.2182 24.7018C27.5515 25.3721 27.5515 26.4613 28.2182 27.1316L30.6349 29.5615C31.6028 30.5348 32.138 31.8303 32.138 33.2064C32.138 34.5857 31.606 35.878 30.6349 36.8512L29.4265 38.0662C28.4264 39.0717 27.1124 39.5744 25.8015 39.5744C24.4873 39.5744 23.1765 39.0716 22.1732 38.0662L19.7566 40.4993C19.4232 40.8344 18.9841 41.002 18.5482 41.002C18.1123 41.002 17.6732 40.8345 17.3398 40.4993C16.6732 39.829 16.6732 38.7397 17.3398 38.0694L19.7565 35.6395C17.7565 33.6286 17.7565 30.3576 19.7565 28.3467C20.4232 27.6764 21.5065 27.6764 22.1731 28.3467C22.8398 29.017 22.8398 30.1063 22.1731 30.7766C21.5065 31.4469 21.5065 32.5361 22.1731 33.2065L23.3815 34.4214H23.3847V34.4247L24.5931 35.6396C25.2566 36.3099 26.3431 36.3099 27.0097 35.6396L28.2181 34.4247C28.5418 34.0992 28.7181 33.6673 28.7181 33.2097C28.7181 32.7521 28.5386 32.3202 28.2181 31.9947L25.8015 29.5648C23.8015 27.5539 23.8015 24.2829 25.8015 22.272L27.0098 21.057C29.0098 19.0461 32.263 19.0461 34.263 21.057L36.6797 18.6271C37.3495 17.9536 38.4297 17.9535 39.0964 18.6238ZM49.914 8.93668V10.6543C49.914 11.605 49.148 12.372 48.2057 12.372H46.4974C45.5519 12.372 44.7891 11.6018 44.7891 10.6543V8.93668C44.7891 7.98604 45.5551 7.21904 46.4974 7.21904H48.2057C49.1512 7.21904 49.914 7.98925 49.914 8.93668Z" stroke="white" stroke-width="1.2" mask="url(#path-1-inside-1_12_112)"/>
<path d="M63.564 60.3865V14.2055C63.564 13.2548 62.8009 12.4883 61.8554 12.4883C60.9131 12.4883 60.1471 13.2553 60.1471 14.206L60.1407 59.6775L58.2241 61.6078L55.8042 59.1747C55.1632 58.5302 54.0286 58.5302 53.3876 59.1747L50.9709 61.6078L48.5543 59.1747C47.9133 58.5302 46.7786 58.5302 46.1376 59.1747L43.7209 61.6078L41.3043 59.1747C40.9837 58.8525 40.551 58.672 40.0959 58.672C39.644 58.672 39.2081 58.8525 38.8875 59.1747L36.4677 61.6078L34.5511 59.6775V53.6254C34.5511 52.6779 33.785 51.9077 32.8427 51.9077C31.9005 51.9077 31.1344 52.6747 31.1344 53.6254L31.1409 60.3865C31.1409 60.8409 31.3203 61.2792 31.6409 61.6015L35.2659 65.2495C35.5865 65.5718 36.0191 65.7523 36.4742 65.7523C36.9262 65.7523 37.3621 65.5718 37.6826 65.2495L40.1025 62.8164L42.5191 65.2495C43.1601 65.8941 44.2948 65.8941 44.9358 65.2495L47.3524 62.8164L49.7691 65.2495C50.4101 65.8941 51.5447 65.8941 52.1858 65.2495L54.6024 62.8164L57.0223 65.2495C57.3428 65.5718 57.7755 65.7523 58.2306 65.7523C58.6826 65.7523 59.1185 65.5718 59.439 65.2495L63.064 61.6015C63.3846 61.2791 63.564 60.8409 63.564 60.3865Z" stroke="white" stroke-width="1.2" mask="url(#path-1-inside-1_12_112)"/>
<path d="M32.5335 2.06793L32.5339 2.06758C33.4454 1.14804 34.6572 0.644971 35.9459 0.644971H55.0449C55.8204 0.644971 56.4533 1.27648 56.4533 2.06262V21.2628C56.4533 22.56 55.9494 23.7826 55.038 24.696L55.0376 24.6964L23.5603 56.3458C23.2961 56.6114 22.9368 56.7601 22.5646 56.7601H17.4364C16.661 56.7601 16.0281 56.1286 16.0281 55.3425V51.9039V51.6039H15.7281H12.3082C11.5328 51.6039 10.8999 50.9724 10.8999 50.1862V46.7476V46.4476H10.5999H7.18002C6.40459 46.4476 5.77171 45.8161 5.77171 45.03V41.5914V41.2914H5.47171H2.05181C1.27639 41.2914 0.643506 40.6599 0.643506 39.8737V34.7175C0.643506 34.532 0.680365 34.3485 0.752188 34.1746C0.82434 34 0.927878 33.8431 1.05621 33.7141L32.5335 2.06793ZM21.8558 53.9249H21.9805L22.0685 53.8364L53.0461 22.6894L52.8334 22.4778L53.0461 22.6894C53.4227 22.3107 53.6331 21.7992 53.6331 21.2658V3.78318V3.48324L53.3332 3.48318L35.9457 3.47996C35.4161 3.47996 34.9013 3.69606 34.5256 4.07008L34.5245 4.07114L3.5469 35.2182L3.45961 35.306V35.4297V38.1561V38.4561H3.75961H7.17951C7.95493 38.4561 8.58782 39.0876 8.58782 39.8738V43.3124V43.6124H8.88782H12.3077C13.0831 43.6124 13.716 44.2439 13.716 45.03V48.4686V48.7686H14.016H17.4359C18.2113 48.7686 18.8442 49.4001 18.8442 50.1863V53.6249V53.9249H19.1442H21.8558ZM21.9604 37.8548L19.5439 40.2877C19.2692 40.564 18.9076 40.702 18.5482 40.702C18.1888 40.702 17.8273 40.564 17.5525 40.2877C17.0023 39.7344 17.0023 38.8343 17.5525 38.281L19.9692 35.8511L20.1796 35.6395L19.9692 35.428C18.0856 33.5341 18.0856 30.4522 19.9692 28.5583C20.5186 28.0059 21.4111 28.0059 21.9604 28.5583C22.5107 29.1115 22.5107 30.0117 21.9604 30.565C21.1774 31.3524 21.1774 32.6307 21.9604 33.418L23.0847 34.5484L23.1688 34.633L23.172 34.6362L23.2568 34.7214L24.3799 35.8507C25.161 36.6399 26.4388 36.6391 27.2225 35.8512L28.4308 34.6362C28.811 34.254 29.0181 33.7459 29.0181 33.2097C29.0181 32.6722 28.8069 32.1651 28.4319 31.7842L28.4308 31.7831L26.0142 29.3533C24.1306 27.4594 24.1306 24.3775 26.0142 22.4835L27.2225 21.2686C29.1053 19.3756 32.1676 19.3756 34.0503 21.2686L34.263 21.4824L34.4757 21.2686L36.8924 18.8387C37.4453 18.2827 38.3347 18.2834 38.8837 18.8354C39.434 19.3887 39.434 20.2889 38.8837 20.8422L36.464 23.2719L36.2533 23.4834L36.4638 23.6951C38.3474 25.589 38.3474 28.6709 36.4638 30.5649C35.9144 31.1172 35.022 31.1172 34.4726 30.5649C33.9223 30.0116 33.9223 29.1114 34.4726 28.5581C35.2556 27.7708 35.2556 26.4925 34.4726 25.7051L32.0559 23.2752L32.0554 23.2747C31.2687 22.4875 29.9981 22.4867 29.2139 23.2752L28.0055 24.4902C27.2224 25.2776 27.2224 26.5559 28.0055 27.3432L30.4221 29.7731C31.3342 30.6901 31.838 31.9095 31.838 33.2064C31.838 34.5067 31.3371 35.7227 30.4225 36.6393L30.4221 36.6397L29.2138 37.8546C28.2723 38.8013 27.0358 39.2744 25.8015 39.2744C24.5641 39.2744 23.3306 38.8013 22.3856 37.8543L22.1727 37.641L21.9604 37.8548ZM49.614 8.93668V10.6543C49.614 11.4405 48.9811 12.072 48.2057 12.072H46.4974C45.7195 12.072 45.0891 11.438 45.0891 10.6543V8.93668C45.0891 8.15054 45.722 7.51904 46.4974 7.51904H48.2057C48.9836 7.51904 49.614 8.15302 49.614 8.93668Z" fill="#B48627" stroke="white" stroke-width="0.6"/>
</g>
<defs>
<clipPath id="clip0_12_112">
<rect width="64" height="66" fill="white"/>
</clipPath>
</defs>
</svg>
