<svg width="80" height="66" viewBox="0 0 80 66" fill="none" xmlns="http://www.w3.org/2000/svg">
<g clip-path="url(#clip0_11_154)">
<path d="M52.1024 39.4835C52.1024 46.1176 46.671 51.5226 40 51.5226C33.3289 51.5226 27.8976 46.1272 27.8976 39.4835C27.8976 38.7893 28.4607 38.2276 29.161 38.2276C29.8613 38.2276 30.4244 38.7893 30.4244 39.4835C30.4244 44.739 34.7198 49.0108 40 49.0108C45.2802 49.0108 49.5756 44.739 49.5756 39.4835C49.5756 38.7893 50.1388 38.2276 50.839 38.2276C51.5393 38.2276 52.1024 38.7893 52.1024 39.4835Z" fill="#B48627" stroke="white" stroke-width="0.4"/>
<path d="M15.6976 42.2692L16.8878 47.4424L22.1463 47.9083M15.6976 42.2692L20.5988 37.6835C20.5954 37.6777 20.592 37.6721 20.5885 37.6664C20.5407 37.5889 20.4854 37.5184 20.4241 37.4553M15.6976 42.2692L20.2244 39.5807L15.6976 42.2692ZM22.1463 47.9083L22.1265 48.1073L16.8702 47.6416L16.7255 47.6288L16.6929 47.4873L15.5027 42.314L15.4699 42.1718L15.5954 42.0972L20.1223 39.4087L20.1229 39.4083C20.7188 39.0577 20.9137 38.2787 20.5598 37.6835L20.4241 37.4553M22.1463 47.9083C22.6341 47.9568 23.0634 48.2383 23.2976 48.6557M22.1463 47.9083L23.2976 48.6557M20.4241 37.4553C20.0274 37.0468 19.3773 36.9461 18.8627 37.2487M20.4241 37.4553L18.8627 37.2487M18.8627 37.2487C18.8626 37.2488 18.8625 37.2489 18.8624 37.2489L13.4192 40.4806L13.4182 40.4811L13.4182 40.4811C12.9475 40.7571 12.7127 41.309 12.8384 41.8344L12.8389 41.8363L12.8388 41.8363L14.4974 49.0769L14.4976 49.0779C14.6148 49.6023 15.0682 49.9976 15.618 50.0482C15.6181 50.0482 15.6182 50.0483 15.6183 50.0483L21.1787 50.5432L21.2798 50.5522L21.3322 50.6391C22.318 52.2736 23.5264 53.7741 24.9092 55.1017L24.9827 55.1722L24.9689 55.273L24.2177 60.7762L24.2175 60.7772C24.1422 61.3104 24.427 61.8379 24.9244 62.0728L24.9255 62.0733L31.6464 65.2951C31.6464 65.2951 31.6465 65.2952 31.6466 65.2952C32.1477 65.5317 32.7362 65.4279 33.1031 65.038L33.1044 65.0366L36.9581 61.0184L37.0281 60.9454L37.1283 60.9585C39.0429 61.2086 40.9474 61.2086 42.8619 60.9585L42.9622 60.9454L43.0321 61.0184L46.8849 65.0357C46.8851 65.0359 46.8853 65.0361 46.8855 65.0363C47.1302 65.2878 47.4584 65.4215 47.7951 65.4215C47.979 65.4215 48.1644 65.3801 48.3433 65.2954C48.3434 65.2953 48.3435 65.2953 48.3436 65.2952L55.0648 62.0733L55.0658 62.0727C55.5607 61.8391 55.8395 61.3126 55.7724 60.7751C55.7724 60.7748 55.7723 60.7744 55.7723 60.7741L55.0213 55.273L55.0075 55.1717L55.0815 55.1012C56.4736 53.7739 57.672 52.2836 58.6577 50.6396L58.7101 50.5522L58.8115 50.5432L64.3719 50.0483C64.3721 50.0483 64.3722 50.0482 64.3723 50.0482C64.9196 49.9978 65.3662 49.6044 65.4931 49.0758C65.4932 49.0755 65.4932 49.0753 65.4933 49.075L67.1511 41.8374C67.1512 41.8373 67.1512 41.8372 67.1512 41.8371C67.269 41.3092 67.0324 40.7559 66.5707 40.4803L61.1278 37.2489C60.5294 36.8967 59.7537 37.0895 59.3909 37.6844C59.0385 38.2781 59.2312 39.0481 59.8295 39.409C59.8297 39.4091 59.8299 39.4092 59.83 39.4094L64.3558 42.0972L64.4813 42.1718L64.4486 42.314L63.2583 47.4873L63.2257 47.6288L63.0811 47.6416L57.8225 48.1075L57.8207 48.1077C57.4009 48.1411 57.0312 48.3831 56.829 48.7518L56.8285 48.7527C55.7834 50.636 54.4326 52.3232 52.8155 53.7554C52.5057 54.0304 52.3529 54.4493 52.4032 54.8612C52.4033 54.8616 52.4033 54.862 52.4034 54.8624L53.1152 60.0621L53.135 60.2067L53.0034 60.2696L48.1936 62.5699L48.0633 62.6322L47.9631 62.5281L44.3144 58.7331L44.3135 58.7322C44.0295 58.433 43.6092 58.2975 43.1937 58.3647C43.1935 58.3648 43.1933 58.3648 43.193 58.3648L43.161 58.1674C41.0341 58.5266 38.9171 58.5266 36.7902 58.1674L18.8627 37.2487ZM23.2976 48.6557C24.3317 50.5192 25.6683 52.1886 27.2683 53.6057C27.6293 53.926 27.8146 54.4113 27.7463 54.8868L23.2976 48.6557ZM48.1073 62.3895L52.9171 60.0892L48.1073 62.3895ZM48.1073 62.3895L44.4585 58.5945L48.1073 62.3895ZM35.6377 58.7322C35.9217 58.433 36.342 58.2975 36.7575 58.3647L22.1276 48.1074C22.5506 48.1499 22.9213 48.3939 23.123 48.7533C24.168 50.6363 25.5188 52.3234 27.1357 53.7554C27.4481 54.0327 27.6068 54.4518 27.5484 54.8584L27.5482 54.8597L26.836 60.0621L26.8162 60.2067L26.9479 60.2696L31.7576 62.5699L31.8879 62.6322L31.9881 62.5281L35.6369 58.7331L35.6377 58.7322Z" fill="#B48627" stroke="white" stroke-width="0.4"/>
<path d="M54.8976 35.4557C49.961 36.2321 44.9854 36.6204 40.0098 36.6204C35.0341 36.6204 30.0488 36.2321 25.1024 35.4557C24.1561 35.3101 23.3268 34.7568 22.8098 33.9804C21.0341 34.0871 19.2585 34.1551 17.4732 34.1551C12.8976 34.1551 8.30244 33.8057 3.73658 33.0874C2.00975 32.8254 0.799998 31.2627 0.99512 29.5254L54.8976 35.4557ZM54.8976 35.4557C55.8537 35.3101 56.6829 34.7568 57.2 33.9804L54.8976 35.4557ZM69.8871 16.5836L69.721 16.7776L69.9492 16.8923C74.7973 19.3279 78.1895 24.0839 78.8061 29.5478C78.9892 31.1688 77.8636 32.6438 76.2432 32.8897L76.2425 32.8898C71.6866 33.5968 67.1017 33.9551 62.5366 33.9551C60.7562 33.9551 58.9848 33.8873 57.212 33.7807L57.0972 33.7738L57.0335 33.8695C56.5464 34.601 55.7657 35.1212 54.8674 35.2579L54.8665 35.2581C49.9402 36.0329 44.975 36.4204 40.0098 36.4204C35.0445 36.4204 30.0695 36.0329 25.1335 35.2581L25.1328 35.258C24.2444 35.1213 23.4635 34.6012 22.9762 33.8695L22.9125 33.7738L22.7978 33.7807C21.025 33.8873 19.2535 33.9551 17.4732 33.9551C12.9077 33.9551 8.32301 33.6064 3.76766 32.8899L3.76659 32.8897C2.14502 32.6436 1.01085 31.1773 1.19387 29.5477C1.81056 24.0936 5.20265 19.3375 10.051 16.8922L10.2788 16.7773L10.1129 16.5836C8.68858 14.9193 7.81951 12.7616 7.81951 10.4145C7.81951 5.15856 12.1192 0.879486 17.4049 0.879486C22.6905 0.879486 26.9902 5.15856 26.9902 10.4145C26.9902 12.7616 26.1212 14.9193 24.6968 16.5836L24.5313 16.7769L24.7583 16.892C26.2717 17.6591 27.6596 18.6564 28.8741 19.8551L28.9987 19.978L29.137 19.8709C30.0922 19.1318 31.1245 18.4887 32.2049 17.961L32.4417 17.8453L32.2665 17.6483C30.6485 15.829 29.6634 13.4589 29.6634 10.8513C29.6634 5.17797 34.2948 0.568896 40 0.568896C45.705 0.568896 50.3366 5.18756 50.3366 10.8513C50.3366 13.4589 49.3515 15.829 47.7335 17.6483L47.5577 17.846L47.7958 17.9613C48.885 18.4887 49.9074 19.1315 50.863 19.8709L51.0019 19.9784L51.1264 19.8545C52.3308 18.6564 53.7184 17.6593 55.2412 16.8922L55.4691 16.7774L55.3032 16.5836C53.8788 14.9192 53.0098 12.7712 53.0098 10.4145C53.0098 5.15856 57.3095 0.879486 62.5951 0.879486C67.8808 0.879486 72.1805 5.15856 72.1805 10.4145C72.1805 12.7712 71.3115 14.9192 69.8871 16.5836ZM70.171 16.5562C70.1569 16.549 70.1429 16.542 70.1288 16.5349L70.039 16.7136L70.191 16.8436C70.2014 16.8315 70.2118 16.8193 70.2221 16.807C75.0317 19.2992 78.3883 24.0621 79.0049 29.5254C79.2 31.253 78 32.8254 76.2732 33.0874L70.171 16.5562ZM3.90244 29.8651C4.46829 24.886 7.79512 20.6251 12.4585 18.8101C13.9122 19.6642 15.6 20.1592 17.4049 20.1592C19.2098 20.1592 20.8976 19.6642 22.3512 18.8101C24.0293 19.4701 25.561 20.4504 26.8488 21.7024C24.4777 24.261 22.9218 27.4534 22.3646 30.9052L3.90244 29.8651ZM22.3433 31.3071L22.3331 31.1321L22.5295 31.1466C23.0504 27.6534 24.6034 24.4197 26.9955 21.8384L27.1282 21.6951L26.9882 21.559C25.681 20.2881 24.1266 19.2935 22.4244 18.624L22.3338 18.5883L22.2499 18.6376C20.8256 19.4745 19.1726 19.9592 17.4049 19.9592C15.6371 19.9592 13.9841 19.4745 12.5599 18.6376L12.4763 18.5885L12.386 18.6237C7.65437 20.4652 4.27808 24.7885 3.70372 29.8425L3.70367 29.8429C3.67135 30.1323 3.88132 30.3765 4.15265 30.4215L4.1546 30.4218C10.2173 31.3655 16.3291 31.6573 22.3433 31.3071ZM55.0453 32.2412L55.0488 32.2229V32.2042V32.2039V32.2035V32.2032V32.2028V32.2025V32.2021V32.2018V32.2015V32.2011V32.2008V32.2004V32.2001V32.1997V32.1994V32.1991V32.1987V32.1984V32.198V32.1977V32.1973V32.197V32.1966V32.1963V32.1959V32.1956V32.1952V32.1949V32.1946V32.1942V32.1939V32.1935V32.1932V32.1928V32.1925V32.1921V32.1918V32.1914V32.1911V32.1907V32.1904V32.19V32.1897V32.1893V32.189V32.1886V32.1883V32.1879V32.1876V32.1872V32.1869V32.1865V32.1862V32.1858V32.1855V32.1851V32.1848V32.1844V32.1841V32.1837V32.1834V32.183V32.1826V32.1823V32.1819V32.1816V32.1812V32.1809V32.1805V32.1802V32.1798V32.1795V32.1791V32.1787V32.1784V32.178V32.1777V32.1773V32.177V32.1766V32.1763V32.1759V32.1755V32.1752V32.1748V32.1745V32.1741V32.1738V32.1734V32.173V32.1727V32.1723V32.172V32.1716V32.1713V32.1709V32.1705V32.1702V32.1698V32.1695V32.1691V32.1687V32.1684V32.168V32.1677V32.1673V32.1669V32.1666V32.1662V32.1659V32.1655V32.1651V32.1648V32.1644V32.1641V32.1637V32.1633V32.163V32.1626V32.1623V32.1619V32.1615V32.1612V32.1608V32.1604V32.1601V32.1597V32.1594V32.159V32.1586V32.1583V32.1579V32.1575V32.1572V32.1568V32.1565V32.1561V32.1557V32.1554V32.155V32.1546V32.1543V32.1539V32.1535V32.1532V32.1528V32.1525V32.1521V32.1517V32.1514V32.151V32.1506V32.1503V32.1499V32.1495V32.1492V32.1488V32.1484V32.1481V32.1477V32.1473V32.147V32.1466V32.1462V32.1459V32.1455V32.1452V32.1448V32.1444V32.1441V32.1437V32.1433V32.143V32.1426V32.1422V32.1419V32.1415V32.1411V32.1408V32.1404V32.14V32.1397V32.1393V32.1389V32.1385V32.1382V32.1378V32.1374V32.1371V32.1367V32.1363V32.136V32.1356V32.1352V32.1349V32.1345V32.1341V32.1338V32.1334V32.133V32.1327V32.1323V32.1319V32.1316V32.1312V32.1308V32.1305V32.1301V32.1297V32.1293V32.129V32.1286V32.1282V32.1279V32.1275V32.1271V32.1268V32.1264V32.126V32.1257V32.1253V32.1249V32.1245V32.1242V32.1238V32.1234V32.1231V32.1227V32.1223V32.122V32.1216V32.1212V32.1209V32.1205V32.1201V32.1197V32.1194V32.119V32.1186V32.1183V32.1179V32.1175V32.1172V32.1168V32.1164V32.1161V32.1157V32.1153V32.1149V32.1146V32.1142V32.1138V32.1135V32.1131V32.1127V32.1124V32.112V32.1116V32.1112V32.1109V32.1105V32.1101V32.1098V32.1094V32.109V32.1087V32.1083V32.1079V32.1075V32.1072V32.1068V32.1064V32.1061V32.1057V32.1053V32.105V32.1046V32.1042V32.1039V32.1035V32.1031V32.1027V32.1024V32.102V32.1016V32.1013V32.1009V32.1005V32.1002V32.0998V32.0994V32.0991V32.0987V32.0983V32.0979V32.0976V32.0972V32.0968V32.0965V32.0961V32.0957V32.0954V32.095V32.0946V32.0943V32.0939V32.0935V32.0932V32.0928V32.0924V32.092V32.0917V32.0913V32.0909V32.0906V32.0902V32.0898V32.0895V32.0891V32.0887V32.0884V32.088V32.0876V32.0873V32.0869V32.0865V32.0862V32.0858V32.0854V32.0851V32.0847V32.0843V32.084V32.0836V32.0832V32.0829V32.0825V32.0821V32.0818V32.0814V32.081V32.0807V32.0803V32.0799V32.0796V32.0792V32.0788V32.0785V32.0781V32.0777V32.0774V32.077V32.0766V32.0763V32.0759V32.0755V32.0752V32.0748V32.0744V32.0741V32.0737V32.0733V32.073V32.0726V32.0722V32.0719V32.0715V32.0712V32.0708V32.0704V32.0701V32.0697V32.0693V32.069V32.0686V32.0682V32.0679V32.0675V32.0672V32.0668V32.0664V32.0661V32.0657V32.0653V32.065V32.0646V32.0642V32.0639V32.0635V32.0632V32.0628V32.0624V32.0621V32.0617V32.0614V32.061V32.0606V32.0603V32.0599V32.0595V32.0592V32.0588V32.0585V32.0581V32.0577V32.0574V32.057V32.0567V32.0563V32.0559V32.0556V32.0552V32.0549V32.0545V32.0541V32.0538V32.0534V32.0531V32.0527V32.0524V32.052V32.0516V32.0513V32.0509V32.0506V32.0502V32.0499V32.0495V32.0491V32.0488V32.0484V32.0481V32.0477V32.0474V32.047V32.0466V32.0463V32.0459V32.0456V32.0452V32.0449V32.0445V32.0442V32.0438V32.0435V32.0431V32.0427V32.0424V32.042V32.0417V32.0413V32.041V32.0406V32.0403V32.0399V32.0396V32.0392V32.0389V32.0385V32.0382V32.0378V32.0375V32.0371V32.0367V32.0364V32.036V32.0357V32.0353V32.035V32.0346V32.0343V32.0339V32.0336V32.0332V32.0329V32.0325V32.0322V32.0319V32.0315V32.0312V32.0308V32.0305V32.0301V32.0298V32.0294V32.0291V32.0287V32.0284V32.028V32.0277V32.0273V32.027V32.0266V32.0263V32.026V32.0256V32.0253V32.0249V32.0246V32.0242V32.0239V32.0235V32.0232V32.0229V32.0225V32.0222V32.0218V32.0215V32.0211V32.0208V32.0205V32.0201V32.0198V32.0084L55.0475 31.9972C54.642 28.4353 52.9411 25.1009 50.2523 22.6421C48.857 21.3623 47.1959 20.3592 45.4268 19.6906L45.3368 19.6566L45.2541 19.7057C43.7128 20.62 41.9137 21.153 40 21.153C38.0863 21.153 36.2872 20.62 34.7459 19.7057L34.6632 19.6566L34.5732 19.6906C32.8042 20.3592 31.1432 21.3622 29.748 22.6419C27.0588 25.1008 25.3581 28.4354 24.9428 32.0259L24.9415 32.0374V32.0489V32.0519C24.9415 32.0904 24.9414 32.1624 24.954 32.2372L24.9553 32.2452L24.9572 32.2529C25.0071 32.4514 25.1668 32.7337 25.5198 32.7899L25.5203 32.79C35.1408 34.2976 44.8787 34.2976 54.4798 32.79L54.4802 32.7899C54.8272 32.7347 55.0045 32.458 55.0453 32.2412ZM75.8552 30.4218L76.0244 30.3954V30.355C76.209 30.2556 76.3209 30.0535 76.2963 29.8332L76.2963 29.8328C75.7219 24.7788 72.3456 20.4555 67.614 18.614L67.5237 18.5788L67.4401 18.6279C66.0159 19.4648 64.3629 19.9495 62.5951 19.9495C60.8274 19.9495 59.1744 19.4648 57.7501 18.6279L57.6662 18.5786L57.5756 18.6142C55.8734 19.2837 54.319 20.2784 53.0118 21.5493L52.8721 21.6852L53.0043 21.8284C55.3966 24.4195 56.9496 27.6632 57.4705 31.1371L57.4946 31.2977L57.6567 31.3071C63.6806 31.6573 69.8022 31.3655 75.8552 30.4218ZM69.6537 10.4242C69.6537 6.5467 66.48 3.40096 62.5951 3.40096C58.7003 3.40096 55.5366 6.54688 55.5366 10.4242C55.5366 14.3015 58.7003 17.4474 62.5951 17.4474C66.49 17.4474 69.6537 14.3015 69.6537 10.4242ZM47.8098 10.861C47.8098 6.576 44.3046 3.09037 40 3.09037C35.6954 3.09037 32.1902 6.576 32.1902 10.861C32.1902 15.1459 35.6954 18.6315 40 18.6315C44.3046 18.6315 47.8098 15.1459 47.8098 10.861ZM24.4634 10.4242C24.4634 6.5467 21.2898 3.40096 17.4049 3.40096C13.51 3.40096 10.3463 6.54688 10.3463 10.4242C10.3463 14.3015 13.51 17.4474 17.4049 17.4474C21.2997 17.4474 24.4634 14.3015 24.4634 10.4242Z" fill="#17100E" stroke="white" stroke-width="0.4"/>
</g>
<defs>
<clipPath id="clip0_11_154">
<rect width="80" height="66" fill="white"/>
</clipPath>
</defs>
</svg>
