<svg width="64" height="66" viewBox="0 0 64 66" fill="none" xmlns="http://www.w3.org/2000/svg">
<g clip-path="url(#clip0_12_112)">
<path d="M32.5335 2.06793L32.5339 2.06758C33.4454 1.14804 34.6572 0.644971 35.9459 0.644971H55.0449C55.8204 0.644971 56.4533 1.27648 56.4533 2.06262V21.2628C56.4533 22.56 55.9495 23.7826 55.038 24.696L55.0376 24.6964L23.5603 56.3458C23.2961 56.6114 22.9368 56.7601 22.5646 56.7601H17.4364C16.661 56.7601 16.0281 56.1286 16.0281 55.3425V51.9039V51.6039H15.7281H12.3082C11.5328 51.6039 10.8999 50.9724 10.8999 50.1862V46.7476V46.4476H10.5999H7.18002C6.40459 46.4476 5.77171 45.8161 5.77171 45.03V41.5914V41.2914H5.47171H2.05181C1.27639 41.2914 0.643506 40.6599 0.643506 39.8737V34.7175C0.643506 34.532 0.680365 34.3485 0.752188 34.1746C0.82434 34 0.927879 33.8431 1.05621 33.7141L32.5335 2.06793ZM53.0461 22.6894L52.8334 22.4778L53.0462 22.6894C53.4227 22.3107 53.6331 21.7992 53.6331 21.2658V3.78318V3.48324L53.3332 3.48318L35.9457 3.47996C35.4161 3.47996 34.9013 3.69606 34.5256 4.07007L34.5245 4.07114L3.5469 35.2182L3.45961 35.306V35.4297V38.1561V38.4561H3.75961H7.17951C7.95493 38.4561 8.58782 39.0876 8.58782 39.8738V43.3124V43.6124H8.88782H12.3077C13.0831 43.6124 13.716 44.2439 13.716 45.03V48.4686V48.7686H14.016H17.4359C18.2113 48.7686 18.8442 49.4001 18.8442 50.1863V53.6249V53.9249H19.1442H21.8558H21.9805L22.0685 53.8364L53.0461 22.6894ZM21.9604 37.8548L19.5439 40.2877C19.5438 40.2878 19.5438 40.2878 19.5437 40.2879C19.269 40.564 18.9076 40.702 18.5482 40.702C18.1888 40.702 17.8273 40.564 17.5525 40.2877C17.0023 39.7344 17.0023 38.8343 17.5525 38.281L19.9692 35.8511L20.1796 35.6395L19.9692 35.428C18.0856 33.5341 18.0856 30.4522 19.9692 28.5583C20.5186 28.0059 21.4111 28.0059 21.9604 28.5583C22.5107 29.1115 22.5107 30.0117 21.9604 30.565C21.1774 31.3524 21.1774 32.6307 21.9604 33.418L23.0847 34.5484L23.1688 34.633L23.172 34.6362L23.2568 34.7214L24.3799 35.8507C25.161 36.6399 26.4388 36.6391 27.2225 35.8512L28.4308 34.6362C28.811 34.254 29.0181 33.7459 29.0181 33.2097C29.0181 32.6722 28.8069 32.1651 28.4319 31.7842L28.4308 31.7831L26.0142 29.3533C24.1306 27.4594 24.1306 24.3775 26.0142 22.4835L27.2225 21.2686C29.1053 19.3756 32.1676 19.3756 34.0503 21.2686L34.263 21.4824L34.4757 21.2686L36.8924 18.8387C37.4453 18.2827 38.3347 18.2834 38.8837 18.8354C39.434 19.3887 39.434 20.2889 38.8837 20.8422L36.464 23.2719L36.2533 23.4834L36.4638 23.6951C38.3474 25.5891 38.3474 28.6709 36.4638 30.5649C35.9144 31.1172 35.022 31.1172 34.4726 30.5649C33.9223 30.0116 33.9223 29.1114 34.4726 28.5581C35.2556 27.7708 35.2556 26.4925 34.4726 25.7051L32.0559 23.2752L32.0554 23.2747C31.2687 22.4875 29.9981 22.4867 29.2139 23.2752L28.0055 24.4902C27.2224 25.2776 27.2224 26.5559 28.0055 27.3432L30.4221 29.7731C31.3342 30.6901 31.838 31.9095 31.838 33.2064C31.838 34.5067 31.3371 35.7227 30.4225 36.6393L30.4221 36.6397L29.2138 37.8546C28.2723 38.8013 27.0358 39.2744 25.8015 39.2744C24.5641 39.2744 23.3306 38.8013 22.3856 37.8543L22.1727 37.641L21.9604 37.8548ZM49.614 8.93668V10.6543C49.614 11.4405 48.9811 12.072 48.2057 12.072H46.4974C45.7195 12.072 45.0891 11.438 45.0891 10.6543V8.93668C45.0891 8.15054 45.722 7.51904 46.4974 7.51904H48.2057C48.9836 7.51904 49.614 8.15302 49.614 8.93668Z" fill="#B48627" stroke="white" stroke-width="0.6"/>
<path d="M60.4471 14.2059V14.206L60.4407 59.6775L60.4407 59.8011L60.3536 59.8888L58.4369 61.8192L58.2242 62.0334L58.0113 61.8193L55.5915 59.3863L55.8042 59.1747L55.5915 59.3862C55.0678 58.8597 54.1241 58.8596 53.6004 59.3861C53.6003 59.3862 53.6003 59.3862 53.6002 59.3863M60.4471 14.2059L53.3875 59.1747L53.6002 59.3863M60.4471 14.2059C60.4471 13.4198 61.08 12.7883 61.8554 12.7883C62.6338 12.7883 63.264 13.4191 63.264 14.2054V60.3865C63.264 60.7622 63.1155 61.1242 62.8513 61.3899L62.8512 61.39L59.2263 65.038C59.2262 65.038 59.2262 65.038 59.2262 65.038C58.9621 65.3036 58.6028 65.4522 58.2306 65.4522C57.8555 65.4522 57.4993 65.3037 57.2349 65.038L54.8151 62.6049L54.6022 62.3908L54.3895 62.605L51.973 65.038C51.4493 65.5646 50.5055 65.5646 49.9818 65.038L47.5653 62.605L47.3524 62.3907L47.1396 62.605L44.723 65.038M60.4471 14.2059L44.723 65.038M53.6002 59.3863L51.1837 61.8192L50.9709 62.0335L50.758 61.8192L48.3415 59.3862M53.6002 59.3863L48.3415 59.3862M31.1344 53.6253L31.1408 60.3865L42.7318 65.038M31.1344 53.6253H31.4344L31.4408 60.3862L31.4408 60.3865C31.4408 60.7622 31.5893 61.1243 31.8535 61.3899L31.8536 61.39L35.4785 65.0379L35.2661 65.2493L35.4786 65.038C35.743 65.3038 36.0992 65.4522 36.4742 65.4522C36.8464 65.4522 37.2057 65.3035 37.4699 65.038L39.8897 62.6049L40.1026 62.3908L40.3153 62.605L42.7318 65.038M31.1344 53.6253L31.4344 53.625L31.4344 53.6252C31.4345 52.8391 32.0673 52.2077 32.8427 52.2077C33.6178 52.2077 34.251 52.842 34.251 53.6253V59.6775V59.8011L34.3381 59.8888L36.2548 61.8192L36.4675 62.0334L36.6804 61.8193L39.1002 59.3863C39.3643 59.1207 39.7237 58.972 40.0959 58.972C40.471 58.972 40.8271 59.1205 41.0916 59.3863M31.1344 53.6253C31.1344 52.6747 31.9004 51.9077 32.8427 51.9077C33.785 51.9077 34.551 52.6779 34.551 53.6253V59.6775L36.2563 61.3949L36.2549 61.3962L36.4677 61.6078L36.6805 61.3964L36.6792 61.3951L38.8875 59.1747C39.208 58.8524 39.6439 58.672 40.0959 58.672C40.551 58.672 40.9837 58.8524 41.3042 59.1747M42.7318 65.038C43.2555 65.5646 44.1993 65.5646 44.723 65.038M42.7318 65.038L44.723 65.038M41.3042 59.1747L41.0914 59.3861L41.0916 59.3863M41.3042 59.1747L41.0916 59.3863M41.3042 59.1747L43.5095 61.3949L43.5081 61.3964L43.7209 61.6078L43.9338 61.3964L43.9323 61.3949L46.1376 59.1747M41.0916 59.3863L43.5081 61.8192L43.7209 62.0335L43.9338 61.8192L46.3503 59.3863M46.3503 59.3863L46.1376 59.1747M46.3503 59.3863C46.874 58.8596 47.8178 58.8597 48.3415 59.3862M46.3503 59.3863L46.3504 59.3861L46.1376 59.1747M46.1376 59.1747C46.7786 58.5302 47.9132 58.5302 48.5542 59.1747M48.3415 59.3862L48.3414 59.3861L48.5542 59.1747M48.3415 59.3862L48.5542 59.1747M48.3415 59.3862L48.5542 59.1747" fill="#17100E" stroke="white" stroke-width="0.6"/>
</g>
<defs>
<clipPath id="clip0_12_112">
<rect width="64" height="66" fill="white"/>
</clipPath>
</defs>
</svg>
