<svg width="57" height="66" viewBox="0 0 57 66" fill="none" xmlns="http://www.w3.org/2000/svg">
<g clip-path="url(#clip0_12_86)">
<path d="M19.5331 60.1497L28.0416 65.0704C28.1815 65.1531 28.3342 65.1913 28.4964 65.1913C28.6586 65.1913 28.805 65.15 28.9513 65.0704L37.4597 60.1497C49.4069 53.2492 56.8243 40.3905 56.8243 26.5868V16.752C56.8243 16.4273 56.6525 16.1313 56.3694 15.969L28.954 0.121745C28.6773 -0.0405817 28.3274 -0.0405817 28.0507 0.121745L0.625537 15.9625C0.34881 16.1248 0.170685 16.4272 0.170685 16.7455V26.5802C0.170685 40.384 7.58834 53.2401 19.5352 60.1431L19.5331 60.1497ZM1.97791 17.2735L28.4992 1.94769L55.0205 17.267V26.5802C55.0205 39.7378 47.9432 51.995 36.559 58.5714L28.4989 63.2311L20.4387 58.5714C9.05503 51.9956 1.97726 39.7321 1.97726 26.5802V17.267L1.97791 17.2735Z" fill="#17100E" stroke="#17100E" stroke-width="0.4"/>
<path d="M23.1591 53.8763L28.0544 56.7027C28.1943 56.7855 28.347 56.8237 28.5092 56.8237C28.6714 56.8237 28.8178 56.7823 28.9641 56.7027L33.8593 53.8763C43.5737 48.2618 49.5978 37.809 49.5978 26.5899V20.934C49.5978 20.6093 49.4261 20.3133 49.143 20.151L28.9576 8.49186C28.6809 8.32954 28.331 8.32954 28.0543 8.49186L7.86894 20.151C7.59222 20.3133 7.41409 20.6157 7.41409 20.934V26.5899C7.41409 37.8099 13.4481 48.2655 23.1624 53.8763H23.1591ZM9.21774 21.4525L28.5 10.3124L47.7823 21.4525V26.5865C47.7823 37.1627 42.0982 47.0203 32.9468 52.3101L28.5096 54.8754L24.0724 52.3101C14.9215 47.0233 9.23695 37.1725 9.23695 26.5865V21.4525H9.21774Z" fill="#B48627" stroke="#B48627" stroke-width="0.4"/>
<path d="M26.4325 36.0973C26.6997 36.3647 27.0433 36.4952 27.3932 36.4952C27.7431 36.4952 28.0866 36.3647 28.3538 36.0973L33.4335 31.0206C33.9615 30.4923 33.9615 29.6266 33.4335 29.0982C32.9055 28.5698 32.0404 28.5698 31.5123 29.0982L27.3932 33.22L25.4974 31.323C24.9694 30.7947 24.1043 30.7947 23.5762 31.323C23.0482 31.8514 23.0482 32.7171 23.5762 33.2455L26.4357 36.1068L26.4325 36.0973Z" fill="#B48627"/>
</g>
<defs>
<clipPath id="clip0_12_86">
<rect width="57" height="66" fill="white"/>
</clipPath>
</defs>
</svg>
