<svg width="66" height="66" viewBox="0 0 66 66" fill="none" xmlns="http://www.w3.org/2000/svg">
<g clip-path="url(#clip0_11_174)">
<path d="M62.4098 19.605C62.2164 19.1197 61.7311 18.9263 61.2459 19.2183C60.7606 19.4116 60.5672 19.8969 60.8592 20.3822C62.7017 24.3632 63.5776 28.6322 63.5776 32.9998C63.5776 49.8861 49.8903 63.5734 33.0041 63.5734C16.1139 63.5734 2.42664 49.8861 2.42664 32.9998C2.42664 16.1135 16.1139 2.4263 33.0002 2.4263C37.2692 2.4263 41.4435 3.29832 45.2315 4.95139C45.7168 5.14475 46.2021 4.95139 46.3955 4.46609C46.5888 3.9808 46.3955 3.49551 45.9102 3.30216C41.8345 1.4596 37.4668 0.58374 32.9062 0.58374C15.0493 0.58374 0.584656 15.0436 0.584656 32.9053C0.584656 50.7622 15.1435 65.321 33.0004 65.321C50.8572 65.321 65.3219 50.8573 65.3219 32.9994C65.3219 28.3398 64.351 23.8781 62.4098 19.605Z" fill="#17100E" stroke="#17100E" stroke-width="0.3"/>
<path d="M43.3843 14.8509C43.5777 14.4642 43.4829 13.8803 42.9976 13.687C39.8925 12.1325 36.4954 11.2605 32.9995 11.2605C20.9662 11.2605 11.2603 21.0654 11.2603 32.9997C11.2603 44.9389 20.9662 54.739 32.9995 54.739C45.0329 54.739 54.7388 45.0331 54.7388 32.9997C54.7388 29.5041 53.8668 26.0123 52.3123 23.0017C52.1189 22.615 51.5351 22.4178 51.1484 22.615C50.7617 22.8083 50.5645 23.3922 50.7617 23.7789C52.2175 26.6907 52.9948 29.7958 52.9948 32.9995C52.9948 44.0623 44.0662 52.9956 32.9987 52.9956C21.936 52.9956 13.0027 44.0631 13.0027 32.9995C13.0027 21.9359 21.9351 13.0034 32.9987 13.0034C36.2024 13.0034 39.3076 13.7807 42.2193 15.2366C42.606 15.4299 43.1899 15.3351 43.3833 14.8498L43.3843 14.8509Z" fill="#17100E" stroke="#17100E" stroke-width="0.3"/>
<path d="M33 23.5862C34.3573 23.5862 35.7184 23.8781 36.981 24.4582C37.4663 24.6516 37.9516 24.4582 38.1449 24.0715C38.3383 23.5862 38.1449 23.1009 37.7582 22.9076C36.3023 22.2289 34.6531 21.8384 33.0986 21.8384C26.8884 21.8384 21.9368 26.8847 21.9368 33.0001C21.9368 39.1156 26.7898 44.1619 32.9996 44.1619C39.2094 44.1619 44.1614 39.2104 44.1614 33.0001C44.1614 31.2523 43.7746 29.5045 42.9974 27.9539C42.8041 27.5671 42.2202 27.37 41.8335 27.5671C41.4468 27.7605 41.2496 28.3444 41.4468 28.7311C42.1254 30.0883 42.4174 31.4495 42.4174 33.0001C42.4174 38.2397 38.1483 42.414 33.0034 42.414C27.8585 42.414 23.5895 38.145 23.5895 33.0001C23.5857 27.8552 27.7604 23.5862 33 23.5862Z" fill="#B48627" stroke="#B48627" stroke-width="0.3"/>
<path d="M32.4157 32.4156C32.029 32.8023 32.029 33.2876 32.4157 33.6781C32.6091 33.8715 32.8024 33.9701 32.9996 33.9701C33.1929 33.9701 33.4849 33.8715 33.5834 33.6781L48.2413 19.0203L54.2581 19.407C54.5501 19.407 54.7434 19.3085 54.9368 19.1151L63.8654 10.1865C64.1574 9.89453 64.1574 9.60259 64.0588 9.21587C63.9602 8.92394 63.5735 8.63201 63.2816 8.63201L57.458 8.53343L57.3595 2.7099C57.3595 2.32318 57.1661 2.03125 56.7756 1.93268C56.4837 1.8341 56.0969 1.8341 55.805 2.12604L53.0904 4.85203C52.9918 4.9506 52.897 5.04539 52.7984 5.14396L46.8763 11.0661C46.6829 11.2595 46.5844 11.4528 46.5844 11.7448L46.9711 17.7616L32.4157 32.4156ZM55.8088 9.3185V9.51186V9.70522C55.8088 9.8038 55.9074 9.8038 55.9074 9.89859L56.006 9.99716C56.006 9.99716 56.1046 10.0957 56.1993 10.0957L56.2979 10.1943H56.4913H56.5898L61.2494 10.2929L59.9869 11.5554L54.4553 11.4568L54.3568 6.02L55.6193 4.75746C55.7103 4.75366 55.8088 9.3185 55.8088 9.3185ZM52.7037 7.76401L52.8023 12.325C52.8023 12.8103 53.189 13.197 53.6743 13.197L58.3339 13.2956L54.0649 17.5646L48.8253 17.2727L48.5333 12.0331C48.431 11.9383 52.7037 7.76401 52.7037 7.76401Z" fill="#B48627" stroke="#B48627" stroke-width="0.3"/>
</g>
<defs>
<clipPath id="clip0_11_174">
<rect width="66" height="66" fill="white"/>
</clipPath>
</defs>
</svg>
