<svg width="66" height="66" viewBox="0 0 66 66" fill="none" xmlns="http://www.w3.org/2000/svg">
<g clip-path="url(#clip0_12_129)">
<path d="M7.13981 13.9368C3.27561 13.9368 0.130005 17.0824 0.130005 20.9466V39.7991V58.6516C0.130005 62.5158 3.27561 65.6614 7.13981 65.6614H25.9923H44.8397C48.7039 65.6614 51.8495 62.5158 51.8495 58.6516V39.8043C51.8601 39.288 51.4394 38.8728 50.9284 38.8728H43.3656C42.8493 38.8728 42.4341 39.288 42.4341 39.8043V43.264C42.4341 45.4303 40.81 47.2349 38.7395 47.3786C37.5739 47.4584 36.478 47.0486 35.653 46.2236C34.9026 45.4678 34.4866 44.4718 34.4866 43.4126V39.8043C34.4866 39.288 34.0715 38.8728 33.5552 38.8728H26.9238V32.4275H29.3938C30.9533 32.4275 32.4169 31.8204 33.524 30.7133C34.7109 29.5157 35.3282 27.8658 35.2164 26.1839C35.0088 23.1394 32.3844 20.7542 29.2441 20.7542H26.9238V14.8682C26.9238 14.3519 26.5086 13.9368 25.9923 13.9368H7.13981ZM7.14513 15.7997H25.0662V21.6857C25.0662 22.202 25.4814 22.6172 25.9977 22.6172H29.2494C31.4157 22.6172 33.2257 24.2413 33.364 26.3118C33.4439 27.4614 33.0233 28.5839 32.2143 29.3982C31.4638 30.1487 30.4635 30.5646 29.4043 30.5646H26.0029C25.4866 30.5646 25.0714 30.9798 25.0714 31.4961V38.8728H19.3715V36.4028C19.3715 34.8433 18.7643 33.3797 17.6572 32.2726C16.4596 31.0857 14.8151 30.4685 13.1278 30.5802C10.0833 30.7878 7.69922 33.4122 7.69922 36.5525V38.8728H1.99811V20.9466C1.99811 18.1096 4.30819 15.7997 7.14513 15.7997ZM13.683 32.4307C14.6767 32.4687 15.6296 32.8798 16.3422 33.5877C17.0927 34.3382 17.5086 35.3384 17.5086 36.3976V39.7991C17.5086 40.3154 17.9237 40.7306 18.44 40.7306H25.0714V46.4305H22.5962C21.0367 46.4305 19.573 47.0378 18.4712 48.1395C17.2789 49.3318 16.6565 50.9869 16.7736 52.6741C16.9812 55.7187 19.6055 58.109 22.7511 58.109H25.0766V63.8089H7.15552C4.30794 63.8036 1.99824 61.4938 1.99824 58.6568V40.7358H8.63067C9.14696 40.7358 9.56212 40.3206 9.56212 39.8043V36.5525C9.56212 34.3862 11.1852 32.5763 13.2557 32.4379C13.3987 32.428 13.541 32.4252 13.683 32.4307ZM26.9291 40.7358H32.6301V43.4126C32.6301 44.9668 33.2363 46.4305 34.3381 47.5376C35.5304 48.7299 37.1856 49.3534 38.8675 49.2363C41.912 49.0287 44.2972 46.4043 44.2972 43.264V40.7358H49.9971V58.6568C49.9971 61.4938 47.6871 63.8037 44.8502 63.8037H26.9343V57.1713C26.9343 56.655 26.5192 56.2398 26.0029 56.2398H22.7459C20.5796 56.2398 18.7698 54.6167 18.6261 52.5463C18.5463 51.3806 18.9561 50.2848 19.7811 49.4598C20.5315 48.7093 21.5265 48.2986 22.591 48.2986H25.9977C26.514 48.2986 26.9291 47.8834 26.9291 47.3671V40.7358Z" fill="#17100E" stroke="#17100E" stroke-width="0.3"/>
<path d="M48.7963 1.91651L48.7963 1.9165C49.5453 1.56142 50.3308 1.37612 51.1094 1.34359C53.4524 1.24569 55.7376 2.53082 56.8006 4.77295C56.8006 4.77299 56.8007 4.77304 56.8007 4.77309L64.8401 21.738L58.9253 24.5456L58.0219 24.9743L58.4506 25.8777L59.5367 28.1662C60.6689 30.556 59.7853 33.3672 57.6045 34.5885L57.6043 34.5886C56.8723 34.9987 56.0557 35.2064 55.2343 35.2064C54.6825 35.2064 54.137 35.1136 53.6079 34.924C52.3867 34.4859 51.4146 33.6058 50.8633 32.4414L49.7199 30.0247L49.2919 29.12L48.3876 29.5488L42.4555 32.3616L38.9541 24.9817L41.966 23.5536C41.9662 23.5536 41.9664 23.5535 41.9665 23.5534C43.167 22.9863 44.0746 21.9767 44.5196 20.7282L44.5201 20.7268C44.9997 19.3745 44.8733 17.8768 44.1681 16.6193L44.1677 16.6187C42.8765 14.3202 39.9682 13.4945 37.5677 14.6295L37.5666 14.6301L34.6899 15.9946L31.8269 9.96103L48.7963 1.91651Z" stroke="#B48627" stroke-width="2"/>
</g>
<defs>
<clipPath id="clip0_12_129">
<rect width="66" height="66" fill="white"/>
</clipPath>
</defs>
</svg>
