<svg width="66" height="66" viewBox="0 0 66 66" fill="none" xmlns="http://www.w3.org/2000/svg">
<g clip-path="url(#clip0_12_97)">
<path d="M0.513976 32.9999C0.513976 15.1832 14.9279 0.671213 32.7077 0.512064L32.7069 0.516754L33.0044 0.514506C60.0316 0.310252 75.4193 32.5657 58.2601 53.4196C57.9589 53.7802 57.6098 53.9283 57.2768 53.9416C56.9377 53.9551 56.5963 53.8291 56.3226 53.6074C56.0488 53.3857 55.8549 53.0779 55.7977 52.7437C55.7417 52.4159 55.8139 52.0447 56.103 51.6764C71.8023 32.5941 57.729 3.10426 33.0021 3.28615C16.6194 3.28664 3.28927 16.6167 3.28875 32.9995C3.10013 57.7234 32.6005 71.7992 51.6765 56.0999C52.0404 55.8107 52.4095 55.739 52.7369 55.7959C53.071 55.8539 53.3801 56.0493 53.6035 56.3247C53.827 56.6001 53.9542 56.9425 53.9414 57.2808C53.929 57.6128 53.7813 57.9596 53.4198 58.2568L53.4198 58.2569C32.566 75.4163 0.316019 60.0323 0.513976 33.0017V32.9999Z" fill="#17100E" stroke="white" stroke-width="0.5"/>
<path d="M12.7049 33V33.1361C12.6377 33.8381 12.0471 34.3883 11.3254 34.3883H10.1744H9.90601L9.92508 34.656C10.7408 46.1109 19.8996 55.2702 31.3553 56.0862L31.623 56.1053V55.8368V54.6859C31.623 53.9214 32.2419 53.3001 33.0089 53.3001C33.7734 53.3001 34.3947 53.9189 34.3947 54.6859V55.8368V56.1053L34.6625 56.0862C46.1173 55.2704 55.2767 46.1117 56.0927 34.656L56.1117 34.3883H55.8433H54.6954C53.9309 34.3883 53.3096 33.7694 53.3096 33.0024C53.3096 32.2379 53.9285 31.6166 54.6954 31.6166H55.8433H56.1117L56.0927 31.3488C55.2769 19.8939 46.1181 10.7346 34.6625 9.91861L34.3947 9.89954V10.168V11.3138C34.3869 11.7809 34.2091 12.1154 33.9587 12.3359C33.7037 12.5604 33.3595 12.6785 33.0077 12.6795C32.656 12.6805 32.3121 12.5644 32.0573 12.3408C31.8072 12.1212 31.6284 11.7859 31.6199 11.3136V10.1526V9.88393L31.3519 9.90323C21.6572 10.6013 13.2871 17.3541 10.6735 26.8201C10.5389 27.2704 10.2773 27.5463 9.97773 27.6922C9.67257 27.8408 9.31089 27.8627 8.97325 27.7698C8.63562 27.6769 8.33625 27.4733 8.15049 27.1897C7.96813 26.9113 7.88494 26.5406 8.00037 26.0845C11.0924 14.8864 21.3706 7.06286 33.0009 7.06055C67.4117 8.48512 67.421 57.5117 33.0009 58.9425C18.6975 58.9397 7.06348 47.3008 7.06348 33C7.06348 32.2354 7.68233 31.6141 8.44933 31.6141H11.319C12.0836 31.6141 12.7049 32.233 12.7049 33Z" fill="#B48627" stroke="white" stroke-width="0.5"/>
<path d="M31.4347 28.5778L31.5673 28.5303V28.3894V18.2184C31.5673 17.4576 32.1588 16.8336 32.9097 16.7855H33.0032C33.7953 16.7855 34.439 17.4267 34.439 18.2214V28.3924V28.5384L34.578 28.5829C37.0974 29.3904 38.5057 32.603 37.2426 35.0151L37.1742 35.1456L37.2786 35.2495L41.3906 39.3462C41.3907 39.3463 41.3909 39.3464 41.391 39.3465C41.7293 39.6871 41.8457 40.0599 41.8225 40.4059C41.799 40.7571 41.6303 41.096 41.3715 41.355C41.1127 41.614 40.7735 41.7832 40.4219 41.8077C40.0755 41.8317 39.7025 41.7165 39.3621 41.3803C39.3621 41.3803 39.362 41.3802 39.3619 41.3801L35.2468 37.2772L35.1465 37.1773L35.0189 37.2386C34.4049 37.5338 33.7256 37.7098 33.004 37.7099C27.7309 37.6593 26.5231 30.3346 31.4347 28.5778ZM31.1673 32.9966L31.1672 32.9966L31.1673 33.0034C31.2087 35.417 34.8008 35.4171 34.8421 33.0034L34.8422 33.0034L34.8421 32.9966C34.8008 30.583 31.2086 30.5829 31.1673 32.9966Z" fill="#B48627" stroke="white" stroke-width="0.4"/>
</g>
<defs>
<clipPath id="clip0_12_97">
<rect width="66" height="66" fill="white"/>
</clipPath>
</defs>
</svg>
