<svg width="40" height="40" viewBox="0 0 40 40" fill="none" xmlns="http://www.w3.org/2000/svg">
<g clip-path="url(#clip0_15_104)">
<path fill-rule="evenodd" clip-rule="evenodd" d="M15.9458 24.0508C14.2345 22.3395 12.677 20.4827 11.2897 18.502C10.4581 17.3198 10.7375 15.6895 11.9148 14.8529L13.0077 14.0741C13.5202 13.6393 13.8906 13.0622 14.0741 12.4141C14.1915 11.804 14.094 11.1723 13.7997 10.625C13.2573 9.68587 12.7696 8.71698 12.3347 7.72489C11.8982 6.71465 11.5163 5.68125 11.1922 4.6313C11.055 4.22952 10.8318 3.86246 10.5358 3.5599C8.99478 2.00235 5.76075 2.82741 4.28731 4.30064C2.36105 6.2269 2.26848 9.70593 3.6772 13.7698C6.87825 22.9631 17.0368 33.1218 26.23 36.3209C30.2942 37.7297 33.7682 37.6371 35.6992 35.7108C37.1675 34.2376 37.9942 31.0167 36.4449 29.4624V29.464C36.1407 29.1681 35.7753 28.9448 35.3735 28.8076C34.3202 28.4852 33.2852 28.1016 32.275 27.6618C31.2796 27.2302 30.3107 26.7425 29.3715 26.2001C28.8225 25.9075 28.1909 25.8116 27.5808 25.9257C26.936 26.1059 26.3589 26.4763 25.9257 26.9888L25.1552 28.0768V28.0751C24.3186 29.2524 22.6899 29.5335 21.5061 28.7068C19.5236 27.3195 17.6651 25.762 15.9539 24.0507L15.9458 24.0508ZM12.7415 17.4849C15.4035 21.2878 18.7118 24.5964 22.515 27.2584C22.6985 27.3907 22.9284 27.4436 23.1532 27.4039C23.3764 27.3659 23.5749 27.2386 23.7038 27.0518L24.5835 25.8282C26.1493 24.1351 28.0623 23.606 30.1487 24.6096H30.1504C30.1868 24.6262 30.2215 24.646 30.2562 24.6692C31.1391 25.1784 32.0502 25.6364 32.986 26.0399C33.9384 26.4565 34.914 26.817 35.906 27.1196H35.9539C37.6834 27.6966 38.8921 29.2657 39.0095 31.0862C39.1881 33.2439 38.4391 35.3753 36.9526 36.9478C34.5056 39.3948 30.3668 39.6065 25.6549 37.9729C15.9194 34.5867 5.38861 24.0673 2.01084 14.3289C0.377228 9.63471 0.588868 5.4946 3.03598 3.06878C5.65668 0.448084 11.3708 -0.219895 12.8688 4.08398V4.11374H12.8671C13.4772 6.09456 14.3073 8.00098 15.344 9.79501C15.3556 9.81154 15.3655 9.82973 15.3738 9.84957C16.3807 11.9329 15.8599 13.8492 14.1585 15.4149L12.9349 16.2945V16.2961C12.7481 16.4251 12.6208 16.6235 12.5828 16.8467C12.5431 17.0716 12.596 17.3014 12.7283 17.485L12.7415 17.4849Z" fill="#17100E" stroke="#17100E" stroke-width="0.3"/>
<path d="M20.1125 6.48605C20.1488 6.97382 20.5754 7.33924 21.0632 7.30121C24.2196 7.05816 27.3246 8.20707 29.5633 10.4475C31.8021 12.6862 32.9512 15.7931 32.7065 18.9495C32.6702 19.4373 33.0356 19.8622 33.5233 19.8986C34.0111 19.9333 34.436 19.5679 34.4724 19.0801C34.7552 15.4099 33.4192 11.7969 30.815 9.19272C28.211 6.58857 24.5983 5.25258 20.9276 5.53532C20.4398 5.57338 20.0744 5.99831 20.1125 6.48605Z" fill="#B48627"/>
<path d="M20.4464 10.9984C20.4861 11.4928 20.9193 11.8615 21.4137 11.8218L21.427 11.8268C23.2624 11.6847 25.068 12.3526 26.3709 13.6555C27.6721 14.9569 28.3401 16.7625 28.1996 18.5994C28.1946 19.0674 28.5551 19.4592 29.023 19.494C29.4893 19.5287 29.9043 19.1947 29.9688 18.7301C30.1556 16.3705 29.2995 14.0474 27.6258 12.3741C25.9522 10.7008 23.6293 9.84431 21.2698 10.0312C20.7755 10.0709 20.4067 10.5041 20.4464 10.9984Z" fill="#B48627"/>
<path d="M21.7659 16.3391H21.7642L21.7659 16.3176C22.2884 16.2763 22.8009 16.4681 23.1697 16.8401C23.5384 17.2138 23.7252 17.7296 23.6789 18.2521C23.6426 18.7399 24.0079 19.1632 24.4957 19.1995C24.9835 19.2359 25.4068 18.8705 25.4431 18.3827C25.5209 17.351 25.1455 16.3358 24.4131 15.6033C23.6806 14.8708 22.667 14.4955 21.6336 14.5732C21.1459 14.6096 20.7804 15.0345 20.8168 15.5223C20.8532 16.0084 21.2782 16.3755 21.7659 16.3391Z" fill="#B48627"/>
<path d="M20.1125 6.48605C20.1488 6.97382 20.5754 7.33924 21.0632 7.30121C24.2196 7.05816 27.3246 8.20707 29.5633 10.4475C31.8021 12.6862 32.9512 15.7931 32.7065 18.9495C32.6702 19.4373 33.0356 19.8622 33.5233 19.8986C34.0111 19.9333 34.436 19.5679 34.4724 19.0801C34.7552 15.4099 33.4192 11.7969 30.815 9.19272C28.211 6.58857 24.5983 5.25258 20.9276 5.53532C20.4398 5.57338 20.0744 5.99831 20.1125 6.48605Z" stroke="#B48627" stroke-width="0.3"/>
<path d="M20.4464 10.9984C20.4861 11.4928 20.9193 11.8615 21.4137 11.8218L21.427 11.8268C23.2624 11.6847 25.068 12.3526 26.3709 13.6555C27.6721 14.9569 28.3401 16.7625 28.1996 18.5994C28.1946 19.0674 28.5551 19.4592 29.023 19.494C29.4893 19.5287 29.9043 19.1947 29.9688 18.7301C30.1556 16.3705 29.2995 14.0474 27.6258 12.3741C25.9522 10.7008 23.6293 9.84431 21.2698 10.0312C20.7755 10.0709 20.4067 10.5041 20.4464 10.9984Z" stroke="#B48627" stroke-width="0.3"/>
<path d="M21.7659 16.3391H21.7642L21.7659 16.3176C22.2884 16.2763 22.8009 16.4681 23.1697 16.8401C23.5384 17.2138 23.7252 17.7296 23.6789 18.2521C23.6426 18.7399 24.0079 19.1632 24.4957 19.1995C24.9835 19.2359 25.4068 18.8705 25.4431 18.3827C25.5209 17.351 25.1455 16.3358 24.4131 15.6033C23.6806 14.8708 22.667 14.4955 21.6336 14.5732C21.1459 14.6096 20.7804 15.0345 20.8168 15.5223C20.8532 16.0084 21.2782 16.3755 21.7659 16.3391Z" stroke="#B48627" stroke-width="0.3"/>
</g>
<defs>
<clipPath id="clip0_15_104">
<rect width="40" height="40" fill="white"/>
</clipPath>
</defs>
</svg>
