<svg width="40" height="40" viewBox="0 0 40 40" fill="none" xmlns="http://www.w3.org/2000/svg">
<g clip-path="url(#clip0_14_217)">
<path fill-rule="evenodd" clip-rule="evenodd" d="M27.3359 0.0586831C27.1269 -0.0155366 26.8984 -0.0194416 26.6874 0.0508701L14 4.22275L6.56258 1.77746C3.3282 0.713018 0.00012207 3.12121 0.00012207 6.52745V24.8284C0.00012207 26.9885 1.38681 28.9045 3.4376 29.5784L13.6875 32.9494C13.8907 33.0178 14.1094 33.0178 14.3125 32.9494L15.4434 32.5784C14.8438 30.8889 14.5 29.135 14.5 27.5004C14.5 26.3305 14.6758 25.1996 15 24.1351V6.0002L25.9999 2.38107V16C26.6816 16 27.3495 16.0586 27.9999 16.1738V2.4179L36.0079 5.27139C37.2012 5.69716 38.0001 6.82803 38.0001 8.09753V26.328C38.0001 26.9608 37.8087 27.5331 37.4884 28.0057C37.4493 28.9432 37.3028 29.9139 37.0665 30.8826C38.7618 30.1092 40.0001 28.408 40.0001 26.328V8.09753C40.0001 5.98228 38.67 4.09754 36.6778 3.38659L27.3359 0.0586831ZM5.93753 3.67587L13 6.00006V30.619L4.06254 27.6795C2.8321 27.2733 2.00006 26.1248 2.00006 24.828V6.52706C2.00006 4.48412 3.99614 3.03912 5.93753 3.67587Z" fill="#17100E"/>
<path fill-rule="evenodd" clip-rule="evenodd" d="M25.9998 22.5C23.2382 22.5 20.9999 24.7383 20.9999 27.5C20.9999 30.2617 23.2382 32.5 25.9998 32.5C28.7615 32.5 30.9998 30.2617 30.9998 27.5C30.9998 24.7383 28.7615 22.5 25.9998 22.5ZM22.9999 27.5C22.9999 25.8437 24.3436 24.5 25.9998 24.5C27.6561 24.5 28.9998 25.8437 28.9998 27.5C28.9998 29.1562 27.6561 30.5 25.9998 30.5C24.3436 30.5 22.9999 29.1562 22.9999 27.5Z" fill="#B48627"/>
<path fill-rule="evenodd" clip-rule="evenodd" d="M16.4999 27.5C16.4999 22.254 20.7537 18 25.9998 18C31.2459 18 35.4997 22.2539 35.4997 27.5C35.4997 30.0781 34.4704 33.1444 32.8396 35.5684C31.2302 37.9649 28.8416 40.0001 25.9997 40.0001C23.1577 40.0001 20.7692 37.9649 19.1597 35.5684C17.5289 33.1446 16.4999 30.0785 16.4999 27.5ZM25.9998 20C21.8572 20 18.4999 23.3574 18.4999 27.5C18.4999 29.6172 19.3729 32.3007 20.8201 34.4529C22.285 36.6326 24.1463 37.9998 25.9996 37.9998C27.8529 37.9998 29.7144 36.6326 31.1791 34.4529C32.6263 32.3006 33.4994 29.617 33.4994 27.5C33.4994 23.3574 30.1424 20 25.9998 20Z" fill="#B48627"/>
</g>
<defs>
<clipPath id="clip0_14_217">
<rect width="40" height="40" fill="white"/>
</clipPath>
</defs>
</svg>
