<svg width="40" height="29" viewBox="0 0 40 29" fill="none" xmlns="http://www.w3.org/2000/svg">
<g clip-path="url(#clip0_158_715)">
<path d="M35.7197 21.9692V22.1692H35.9197H38.4659C39.1408 22.1692 39.6863 22.7139 39.6863 23.3852C39.6863 24.0565 39.1408 24.6012 38.4659 24.6012H35.9197H35.7197V24.8012V27.3394C35.7197 28.0108 35.1742 28.5555 34.4992 28.5555C33.8243 28.5555 33.2788 28.0108 33.2788 27.3394V24.8012V24.6012H33.0788H30.5308C29.8559 24.6012 29.3104 24.0565 29.3104 23.3852C29.3104 22.7139 29.8559 22.1692 30.5308 22.1692H33.0788H33.2788V21.9692V19.4292C33.2788 18.7579 33.8243 18.2132 34.4992 18.2132C35.1742 18.2132 35.7197 18.7579 35.7197 19.4292V21.9692Z" fill="#B48627" stroke="#F8F3EA" stroke-width="0.4"/>
<path d="M4.37501 0.444141H35.625C37.8643 0.444141 39.6864 2.25977 39.6864 4.49219V15.4098C39.6864 16.0811 39.1409 16.6258 38.4659 16.6258C37.791 16.6258 37.2455 16.0811 37.2455 15.4098V4.49219C37.2455 3.60054 36.5179 2.87617 35.625 2.87617H4.37501C3.4821 2.87617 2.75456 3.60054 2.75456 4.49219V24.3164C2.75456 25.2081 3.4821 25.9324 4.37501 25.9324H26.3068C26.9818 25.9324 27.5273 26.4771 27.5273 27.1484C27.5273 27.8198 26.9818 28.3645 26.3068 28.3645H4.37501C2.13579 28.3645 0.313647 26.5471 0.313647 24.3164V4.49219C0.313647 2.26148 2.13579 0.444141 4.37501 0.444141Z" fill="#17100E" stroke="#F8F3EA" stroke-width="0.4"/>
<path d="M22.8719 18.9304L22.8719 18.9304C22.0801 19.7197 21.0414 20.1146 19.9999 20.1146C18.9585 20.1146 17.92 19.7197 17.13 18.9289L17.1297 18.9286L5.17474 7.01275C5.17474 7.01274 5.17473 7.01274 5.17473 7.01274C4.69914 6.53862 4.69915 5.76824 5.17474 5.29413C5.65069 4.81967 6.42458 4.81967 6.90052 5.29413L18.8555 17.2118C19.4876 17.8418 20.514 17.8418 21.1461 17.2118C21.1461 17.2118 21.1461 17.2118 21.1461 17.2118L33.1011 5.29595L33.1011 5.29594C33.5771 4.82148 34.3509 4.82148 34.8269 5.29594C35.3025 5.77005 35.3025 6.54045 34.8269 7.01456L22.8719 18.9304Z" fill="#17100E" stroke="#F8F3EA" stroke-width="0.4"/>
<path d="M5.17303 21.8051L10.443 16.5516C10.9208 16.0753 11.6928 16.0753 12.1705 16.5516C12.6461 17.0257 12.6461 17.7961 12.1705 18.2702L6.90099 23.5233C6.90094 23.5233 6.90088 23.5234 6.90083 23.5234C6.66089 23.761 6.34984 23.8795 6.03679 23.8795C5.7233 23.8795 5.41082 23.7607 5.17303 23.5237C4.69743 23.0496 4.69743 22.2792 5.17303 21.8051Z" fill="#B48627" stroke="#F8F3EA" stroke-width="0.4"/>
</g>
<defs>
<clipPath id="clip0_158_715">
<rect width="40" height="29" fill="white"/>
</clipPath>
</defs>
</svg>
