<svg width="40" height="40" viewBox="0 0 40 40" fill="none" xmlns="http://www.w3.org/2000/svg">
<path d="M7.87688 0.942383H30.8461C32.8199 0.942383 34.7129 1.72648 36.1086 3.12218C37.5043 4.51789 38.2884 6.41087 38.2884 8.38469V31.3539C38.2884 33.3277 37.5043 35.2207 36.1086 36.6164C34.7129 38.0121 32.8199 38.7962 30.8461 38.7962H7.87688C5.90306 38.7962 4.01008 38.0121 2.61437 36.6164C1.21867 35.2207 0.43457 33.3277 0.43457 31.3539V8.38469C0.43457 6.41087 1.21867 4.51789 2.61437 3.12218C4.01008 1.72648 5.90306 0.942383 7.87688 0.942383ZM34.2865 34.7943C35.1989 33.8818 35.7115 32.6443 35.7115 31.3539V8.38469C35.7115 7.09431 35.1989 5.85678 34.2865 4.94434C33.374 4.03191 32.1365 3.51931 30.8461 3.51931H7.87688C6.5865 3.51931 5.34897 4.03191 4.43653 4.94434C3.5241 5.85678 3.01149 7.09431 3.01149 8.38469V31.3539C3.01149 32.6443 3.5241 33.8818 4.43653 34.7943C5.34897 35.7067 6.5865 36.2193 7.87688 36.2193H30.8461C32.1365 36.2193 33.374 35.7067 34.2865 34.7943Z" fill="#17100E" stroke="#F8F3EA" stroke-width="0.5"/>
<path d="M32.1033 8.9647C32.3918 8.67618 32.5539 8.28487 32.5539 7.87684C32.5539 7.46882 32.3918 7.0775 32.1033 6.78898C31.8147 6.50047 31.4234 6.33838 31.0154 6.33838H29.4769C29.0689 6.33838 28.6776 6.50047 28.3891 6.78898C28.1006 7.0775 27.9385 7.46882 27.9385 7.87684C27.9385 8.28487 28.1006 8.67618 28.3891 8.9647C28.6776 9.25321 29.0689 9.4153 29.4769 9.4153H31.0154C31.4234 9.4153 31.8147 9.25321 32.1033 8.9647Z" fill="#B48627"/>
<path d="M15.6624 14.3315C16.7596 13.6011 18.0488 13.2126 19.3669 13.2151C21.1314 13.2186 22.8224 13.922 24.0689 15.1709C25.3153 16.4198 26.0154 18.1122 26.0154 19.8767C26.0154 21.1948 25.6244 22.4832 24.8918 23.579C24.1593 24.6748 23.1181 25.5286 21.9001 26.0324C20.6821 26.5362 19.342 26.6673 18.0494 26.4093C16.7569 26.1512 15.5699 25.5154 14.6388 24.5825C13.7077 23.6495 13.0743 22.4613 12.8187 21.1683C12.5632 19.8752 12.6969 18.5354 13.2031 17.3184C13.7093 16.1014 14.5652 15.0619 15.6624 14.3315Z" stroke="#B48627" stroke-width="2.4"/>
</svg>
