<svg width="40" height="29" viewBox="0 0 40 29" fill="none" xmlns="http://www.w3.org/2000/svg">
<g clip-path="url(#clip0_15_114)">
<path d="M37.2455 21.807L36.9265 21.5709L31.6088 17.6344L31.6087 17.6343C31.0687 17.2344 30.3024 17.3471 29.9014 17.8867L29.9012 17.887C29.4991 18.426 29.6127 19.1857 30.1532 19.5876L36.3319 24.1612L36.4911 24.279L36.3749 24.4393C35.5516 25.575 34.2366 26.2743 32.7843 26.2743H7.21613C5.76539 26.2743 4.45415 25.5766 3.62741 24.4377L3.51112 24.2775L3.67014 24.1595L11.5538 18.3133L11.5538 18.3133C12.0951 17.912 12.2064 17.1509 11.8038 16.6111L11.8037 16.6111C11.4031 16.0735 10.6385 15.9615 10.096 16.3604C10.0959 16.3604 10.0959 16.3605 10.0958 16.3606L3.07412 21.5692L2.75496 21.806V21.4086V7.66624C2.75496 6.24475 3.44027 4.94689 4.55846 4.12106L4.70361 4.01386L4.82512 4.14725L16.9947 17.5054L16.9947 17.5054C17.7627 18.3486 18.8613 18.8331 20.0073 18.8331L20.0192 18.8331L20.0198 18.8331M37.2455 21.807L23.1501 17.6436C22.3617 18.518 21.2183 19.0295 20.0198 19.0331V18.8331M37.2455 21.807V21.4101V17.1674C37.2455 16.4961 37.791 15.9514 38.4659 15.9514C39.1408 15.9514 39.6864 16.4964 39.6864 17.1677V21.8263L39.6864 21.827C39.7001 25.5487 36.5463 28.7682 32.7874 28.7064H32.7841L7.21593 28.7064L7.21262 28.7064C3.46739 28.7684 0.298126 25.5571 0.313653 21.8271V21.8263V7.66616H0.313679L0.313626 7.66291C0.25323 3.9411 3.48822 0.761996 7.21463 0.786073V0.786078H7.21593H22.4859C23.1609 0.786078 23.7064 1.33077 23.7064 2.00209C23.7064 2.67341 23.1609 3.21811 22.4859 3.21811H7.72911H7.27648L7.58123 3.55277L18.8012 15.8737L18.8015 15.874C19.1158 16.2179 19.4807 16.3735 19.9997 16.4024L19.9997 16.4028H20.0109C20.4684 16.4028 20.8898 16.2144 21.1923 15.8788C21.1925 15.8786 21.1927 15.8784 21.1929 15.8782M37.2455 21.807L21.1929 15.8782M20.0198 18.8331C21.162 18.8295 22.2514 18.3417 23.0015 17.5097L23.0027 17.5084L24.8206 15.5262L20.0198 18.8331ZM24.7432 13.8091C25.24 14.262 25.2751 15.0289 24.8208 15.526L24.7432 13.8091ZM24.7432 13.8091C24.2438 13.3554 23.4716 13.391 23.0189 13.8862L23.0187 13.8865L21.1929 15.8782M24.7432 13.8091L21.1929 15.8782" fill="#17100E" stroke="#F8F3EA" stroke-width="0.4"/>
<path d="M32.6669 14.2877H32.6668C28.7958 14.2877 25.6473 11.1481 25.6473 7.29073C25.6473 3.43331 28.7959 0.29375 32.6668 0.29375C36.5379 0.29375 39.6864 3.4334 39.6864 7.29073C39.6864 11.15 36.5377 14.2894 32.6669 14.2877ZM32.6668 2.72587C30.1422 2.72587 28.0883 4.77246 28.0883 7.29073L32.6668 11.6556V11.8556C32.6669 11.8556 32.6669 11.8556 32.667 11.8556C35.1915 11.8555 37.2454 9.80896 37.2454 7.29073C37.2454 4.77246 35.1914 2.72587 32.6668 2.72587Z" fill="#B48627" stroke="#F8F3EA" stroke-width="0.4"/>
</g>
<defs>
<clipPath id="clip0_15_114">
<rect width="40" height="29" fill="white"/>
</clipPath>
</defs>
</svg>
