<svg width="65" height="70" viewBox="0 0 65 70" fill="none" xmlns="http://www.w3.org/2000/svg">
<g clip-path="url(#clip0_1_142)">
<path d="M21.6869 56.6014C22.9822 55.7632 22.1516 53.5697 21.2059 52.2771C20.1682 53.6402 20.1854 55.5439 21.6869 56.6014Z" fill="#B48627"/>
<path d="M18.8489 55.1955C20.179 54.4583 19.5042 52.2076 18.693 50.9057C17.5841 52.1448 17.4532 54.027 18.8489 55.1955Z" fill="#B48627"/>
<path d="M16.3424 49.2826C15.1845 50.3898 14.8591 52.2587 16.1629 53.515C17.5463 52.879 16.9642 50.6882 16.3424 49.2826Z" fill="#B48627"/>
<path d="M13.6568 51.5865C15.0281 51.0754 14.6976 48.8028 14.1756 47.4346C12.8543 48.5119 12.5629 50.3441 13.6568 51.5865Z" fill="#B48627"/>
<path d="M11.3622 49.4206C12.7326 49.0268 12.6003 46.8371 12.2262 45.3721C10.8394 46.3173 10.3996 48.121 11.3622 49.4206Z" fill="#B48627"/>
<path d="M10.5234 43.1117C9.1757 43.8691 8.4607 45.4787 9.31448 47.0173C10.6732 46.7411 10.786 44.4924 10.5234 43.1117Z" fill="#B48627"/>
<path d="M9.09722 40.6797C7.64879 41.32 6.8853 42.893 7.55297 44.4029C8.90243 44.2606 9.20876 42.0393 9.09722 40.6797Z" fill="#B48627"/>
<path d="M7.99134 38.0923C6.55732 38.5675 5.57978 40.0329 6.11262 41.6092C7.4459 41.5854 7.92838 39.4388 7.99134 38.0923Z" fill="#B48627"/>
<path d="M7.20966 35.3871C5.7048 35.7285 4.65662 37.1493 5.01469 38.6653C6.32395 38.7606 6.99198 36.7206 7.20966 35.3871Z" fill="#B48627"/>
<path d="M6.76748 32.5962C5.15109 32.803 4.09113 34.2269 4.28241 35.611C5.53364 35.8178 6.48294 33.845 6.76748 32.5962Z" fill="#B48627"/>
<path d="M6.67728 29.7571C5.23875 29.7969 3.92853 30.905 3.93012 32.4915C5.15556 32.8103 6.24398 30.9608 6.67728 29.7571Z" fill="#B48627"/>
<path d="M6.94309 26.9254C5.33458 26.8215 4.04762 28.052 3.96982 29.3544C5.1496 29.7779 6.36193 28.052 6.94309 26.9254Z" fill="#B48627"/>
<path d="M4.39169 26.2564C5.51842 26.7769 6.89979 25.1833 7.56261 24.1343C6.09214 23.9021 4.66701 24.855 4.39169 26.2564Z" fill="#B48627"/>
<path d="M5.18805 23.2272C6.24145 23.8372 7.72865 22.4087 8.52368 21.4216C7.15131 21.0845 5.63541 21.8148 5.18805 23.2272Z" fill="#B48627"/>
<path d="M9.80943 18.8242C8.53171 18.39 6.92958 18.9528 6.34146 20.32C7.29475 20.9794 8.93205 19.7812 9.80943 18.8242Z" fill="#B48627"/>
<path d="M11.3952 16.3637C10.1806 15.8561 8.54897 16.251 7.82361 17.5643C8.72991 18.2975 10.5473 17.1775 11.3952 16.3637Z" fill="#B48627"/>
<path d="M13.2544 14.0858C12.0955 13.5046 10.4392 13.7548 9.60269 14.9979C10.4521 15.7808 12.3441 14.8122 13.2544 14.0858Z" fill="#B48627"/>
<path d="M11.6534 12.6262C12.4544 13.4671 14.3914 12.6343 15.357 11.9955C14.156 11.2921 12.4656 11.567 11.6534 12.6262Z" fill="#B48627"/>
<path d="M13.9406 10.4893C14.6704 11.3476 16.6198 10.7079 17.6771 10.1168C16.5506 9.36375 14.8594 9.48526 13.9406 10.4893Z" fill="#B48627"/>
<path d="M16.4163 8.58484C17.1212 9.50913 19.1015 8.92537 20.1689 8.46322C19.1393 7.69298 17.4588 7.62812 16.4163 8.58484Z" fill="#B48627"/>
<path d="M14.2896 57.7451C16.3021 58.1516 18.6137 57.5966 18.1647 55.7049C16.1312 55.0091 14.5676 56.0957 14.2896 57.7451Z" fill="#B48627"/>
<path d="M15.4179 53.9624C13.3712 53.0699 11.82 54.0172 11.3805 55.5126C13.5922 56.2641 15.6272 55.6535 15.4179 53.9624Z" fill="#B48627"/>
<path d="M12.8564 51.9583C10.9043 50.8682 9.31069 51.6132 8.70831 52.9935C11.2074 54.1542 12.8673 53.3072 12.8564 51.9583Z" fill="#B48627"/>
<path d="M10.5177 49.6933C9.1125 48.5541 7.20452 48.727 6.3161 50.1962C7.90557 51.2176 10.2866 51.5004 10.5177 49.6933Z" fill="#B48627"/>
<path d="M8.44192 47.1877C7.13231 45.865 5.25709 45.8965 4.24319 47.1404C5.73196 48.3057 7.98035 48.9513 8.44192 47.1877Z" fill="#B48627"/>
<path d="M6.65833 44.4651C5.53139 43.0997 3.77393 42.7366 2.53955 43.8573C3.70492 45.1675 5.99801 46.0909 6.65833 44.4651Z" fill="#B48627"/>
<path d="M5.20226 41.5545C4.14883 39.8535 2.41461 39.6083 1.25113 40.3836C2.48851 42.1004 4.43027 42.8995 5.20226 41.5545Z" fill="#B48627"/>
<path d="M4.10502 38.4887C3.25218 36.6721 1.6332 36.212 0.399658 36.7832C1.26117 38.4331 3.12371 39.7499 4.10502 38.4887Z" fill="#B48627"/>
<path d="M3.39849 35.3123C2.97803 33.7374 1.4653 32.7034 0 33.117C0.801412 35.1294 2.35128 36.2906 3.39849 35.3123Z" fill="#B48627"/>
<path d="M3.08977 32.0795C2.84016 30.3729 1.45419 29.2803 0.0587158 29.4478C0.57459 31.5372 1.95739 32.861 3.08977 32.0795Z" fill="#B48627"/>
<path d="M3.17407 28.8398C3.1709 27.3205 2.07999 25.8892 0.573547 25.8252C0.707825 27.4564 1.77807 29.5115 3.17407 28.8398Z" fill="#B48627"/>
<path d="M3.65856 25.6305C3.85852 24.1312 2.9527 22.5998 1.52823 22.3111C1.47246 24.2675 2.38944 26.0394 3.65856 25.6305Z" fill="#B48627"/>
<path d="M4.53699 22.5108C4.91558 20.7343 4.04337 19.3919 2.8956 18.9578C2.63442 20.4127 3.0873 22.7358 4.53699 22.5108Z" fill="#B48627"/>
<path d="M5.77757 19.5278C6.36444 17.884 5.71031 16.4176 4.63505 15.8133C4.16107 17.5859 4.47172 19.5278 5.77757 19.5278Z" fill="#B48627"/>
<path d="M7.35141 16.7107C8.08802 15.3298 7.71652 13.6986 6.70468 12.9153C5.97128 14.7323 6.17829 16.5331 7.35141 16.7107Z" fill="#B48627"/>
<path d="M9.22457 14.0855C10.1066 12.7989 9.92728 11.1726 9.06135 10.2744C8.23482 11.739 8.0306 13.7295 9.22457 14.0855Z" fill="#B48627"/>
<path d="M11.3596 11.6813C12.3382 10.6032 12.393 8.9333 11.6584 7.91194C10.6001 9.38724 10.3173 11.1949 11.3596 11.6813Z" fill="#B48627"/>
<path d="M13.7326 9.50603C14.7063 8.66167 15.1 7.02168 14.4683 5.82821C13.4873 6.87554 12.6935 8.84029 13.7326 9.50603Z" fill="#B48627"/>
<path d="M17.4519 4.03368C16.4971 4.92796 15.3394 6.75715 16.3096 7.57826C17.4874 6.74089 17.8598 5.14747 17.4519 4.03368Z" fill="#B48627"/>
<path d="M23.1993 4.50096C21.4185 4.40343 18.8076 5.22432 18.1671 6.8986C19.7565 7.19932 22.0541 5.67133 23.1993 4.50096Z" fill="#B48627"/>
<path d="M63.4142 60.1402C63.3915 60.1402 63.3234 60.1973 63.2157 60.3114C63.1046 60.4174 63.026 60.4745 62.9766 60.4745C60.9493 62.2196 59.2574 63.4347 57.9026 64.1279C56.547 64.8128 54.7806 65.1553 52.609 65.1553C50.8491 65.1553 49.2261 64.9514 47.7368 64.5518C46.2467 64.1441 44.0679 63.0677 40.5844 61.2003C39.6777 60.7192 39.1332 60.4256 38.9866 60.3685L39.0546 60.2136C40.104 59.969 41.1914 59.6673 42.3144 59.3166C43.4375 58.9578 44.5184 58.5337 45.5572 58.0445C46.5943 57.547 47.6631 56.9273 48.7618 56.1608C49.8614 55.4024 51.0711 54.3912 52.3903 53.1354C55.2935 50.3628 57.5105 47.1418 59.0387 43.4804C60.5636 39.819 61.3277 36.0678 61.3277 32.2351C61.3277 28.3291 60.6065 24.6351 59.1659 21.1531C57.726 17.6792 55.7043 14.6212 53.1017 11.9792C50.5023 9.33706 47.4621 7.27388 43.9811 5.7979C40.5018 4.33007 36.832 3.58804 32.9735 3.58804H32.9273L32.8633 3.63693C32.4144 4.00389 32.1024 4.5584 31.9258 5.30862C32.2515 5.29231 32.5764 5.28418 32.9005 5.28418C35.2204 5.28418 37.601 5.6756 40.044 6.46659C42.4854 7.24944 44.836 8.64392 47.0951 10.6336C49.3541 12.6234 51.2178 15.4285 52.6812 19.0573C54.147 22.678 54.8786 27.1956 54.8786 32.6021C54.8786 40.985 52.8051 47.6066 48.6524 52.4749C46.7961 54.6359 44.5184 56.2994 41.8201 57.4492C40.0391 58.2157 38.1682 58.7213 36.2122 58.9822C34.846 58.3462 33.6225 57.8488 32.5456 57.4818C31.9007 57.2617 31.3108 57.0823 30.776 56.9355C30.4024 56.1282 30.2088 55.1415 30.2088 53.9754V6.52369C30.2088 4.41165 30.7695 2.90308 31.8934 1.98976C33.0164 1.0846 34.385 0.62793 35.9966 0.62793V7.62939e-06H18.8891V0.62793C20.4514 0.62793 21.8013 1.04377 22.9365 1.88369C24.0725 2.71546 24.6397 4.26487 24.6397 6.52369V53.9754C24.6397 54.1629 24.63 54.3423 24.6219 54.5135C24.3909 54.1058 24.1187 53.7226 23.8424 53.4045C23.1399 54.4728 23.0491 55.7775 23.6552 56.7724C22.8004 56.9926 21.9714 57.3187 21.1693 57.7346C21.1676 57.5552 21.1368 57.3677 21.0696 57.1801C18.9596 56.6745 17.4849 57.9466 17.4104 59.6591C17.7385 59.6917 18.0424 59.6999 18.3284 59.6917C16.3935 61.2656 14.4229 63.2063 12.4166 65.5223L13.2585 66.0768C13.2836 66.0768 13.3508 66.0197 13.461 65.9055C13.5704 65.7995 13.6498 65.7424 13.6984 65.7424C15.7258 63.9974 17.4168 62.7823 18.7724 62.0892C20.1281 61.4042 21.8936 60.9476 24.0668 60.9476C25.8251 60.9476 27.675 61.0535 29.1149 61.6162H29.1246C33.4621 63.8342 36.9438 65.5712 39.5675 66.8189C41.3007 67.6506 42.8208 68.2867 44.1278 68.7352C45.434 69.1756 46.5149 69.4691 47.3698 69.6159C48.2246 69.7627 49.0794 69.8361 49.9343 69.8361C52.6447 69.8361 55.1233 68.988 57.3703 67.2918C59.6172 65.5957 61.9127 63.402 64.2569 60.6947L63.4142 60.1402Z" fill="#B48627"/>
</g>
<defs>
<clipPath id="clip0_1_142">
<rect width="65" height="70" fill="white"/>
</clipPath>
</defs>
</svg>
